<?xml version="1.0" encoding="utf-8"?>
<!-- Generator: Adobe Illustrator 18.0.0, SVG Export Plug-In . SVG Version: 6.00 Build 0)  -->
<!DOCTYPE svg PUBLIC "-//W3C//DTD SVG 1.1//EN" "http://www.w3.org/Graphics/SVG/1.1/DTD/svg11.dtd">
<svg version="1.1" id="Layer_1" xmlns="http://www.w3.org/2000/svg" xmlns:xlink="http://www.w3.org/1999/xlink" x="0px" y="0px"
	 viewBox="0 0 495 119.7" enable-background="new 0 0 495 119.7" xml:space="preserve">
<g>
	<defs>
		<rect id="SVGID_1_" x="369.2" y="4" width="110.7" height="110.7"/>
	</defs>
	<clipPath id="SVGID_2_">
		<use xlink:href="#SVGID_1_"  overflow="visible"/>
	</clipPath>
	<g clip-path="url(#SVGID_2_)">
		<defs>
			<rect id="SVGID_3_" x="49.8" y="-483.1" width="763.1" height="1079.2"/>
		</defs>
		<clipPath id="SVGID_4_">
			<use xlink:href="#SVGID_3_"  overflow="visible"/>
		</clipPath>
		<g clip-path="url(#SVGID_4_)">
			<defs>
				<rect id="SVGID_5_" x="-3.4" y="-527.7" width="1626.7" height="1569"/>
			</defs>
			<clipPath id="SVGID_6_">
				<use xlink:href="#SVGID_5_"  overflow="visible"/>
			</clipPath>
			<g clip-path="url(#SVGID_6_)">
				<defs>
					<rect id="SVGID_7_" x="354.1" y="-11.1" width="321.1" height="454.4"/>
				</defs>
				<clipPath id="SVGID_8_">
					<use xlink:href="#SVGID_7_"  overflow="visible"/>
				</clipPath>
				<path clip-path="url(#SVGID_8_)" fill="#0E2038" d="M384.1,60.4l0.3,0l0.3-3.9l-0.3,0c-0.2,1.1-0.4,1.2-1.3,1.1l-2.6-0.2
					l-0.3-0.4l1.6-1.3c0.5-0.4,2-1.6,2.4-1.6c0.3,0.1,0.3,0.3,0.3,1l0.3,0l0.3-4.1l-0.3-0.1c0,0.9-0.6,1.3-1.7,2.1l-3.7,3l-2.4-2.8
					c-0.9-1-0.9-1.3-0.9-2.2H376l-0.3,3.6h0.3c0.1-0.6,0.1-0.9,0.5-0.9c0.5,0,0.8,0.5,3.3,3.8l-2.8-0.2c-1-0.1-1.2-0.3-1.1-1.4
					l-0.3,0l-0.3,3.9l0.3,0c0.1-0.9,0.3-1.2,1.3-1.1l5.9,0.5C383.9,59.2,384.1,59.4,384.1,60.4"/>
				<path clip-path="url(#SVGID_8_)" fill="#0E2038" d="M379.3,47.7l3.1-0.9l2.3,0.6c1,0.4,1.3,0.5,0.9,1.8l0.2,0.1l1.3-4.1h-0.2
					c-0.4,1.2-0.7,1.3-1.6,0.9l-2.6-0.8l-2.4-2.8c-1.1-1.4-1-1.8-0.9-2.3l-0.2-0.1l-0.9,2.9h0.2c0.1-0.4,0.3-0.9,0.7-0.8
					c0.2,0.1,0.3,0.3,0.4,0.4l2.4,2.8l-3.5,1c-0.2,0.1-0.5,0.1-0.6,0c-0.4-0.1-0.3-0.4-0.1-1h-0.2l-1.2,3.6l0.3,0.1
					C376.8,48.6,376.9,48.5,379.3,47.7"/>
				<path clip-path="url(#SVGID_8_)" fill="#0E2038" d="M382.3,35c0.7-1.3,2.4-2.1,5.1-0.4c2.6,1.4,3,3.3,2.2,4.6
					c-0.8,1.3-2.5,1.9-5.2,0.4C381.8,38.1,381.6,36.3,382.3,35 M383.7,41.1c2.6,1.4,5.1,0.6,6.4-1.5c1.2-2.2,0.7-4.7-1.9-6.3
					c-2.7-1.5-5.2-0.4-6.4,1.5C380.7,36.7,381,39.5,383.7,41.1"/>
				<path clip-path="url(#SVGID_8_)" fill="#0E2038" d="M387.1,31.2c-0.9-1.3-0.9-1.7,0.1-2.8l0.5-0.5l5.2,4.5
					c0.8,0.6,1,0.9,0.2,1.9l0.2,0.1l2.7-3l-0.2-0.3c-0.8,0.9-1.1,0.8-1.8,0.3l-5.3-4.7l0.5-0.5c1-1.2,1.4-1.3,2.8-0.5l0.2-0.3
					l-1.8-1.4l-5.1,5.8l1.7,1.7L387.1,31.2"/>
				<path clip-path="url(#SVGID_8_)" fill="#0E2038" d="M395.1,20.4c1.1-0.9,3-0.9,4.9,1.7c1.8,2.4,1.4,4.2,0.2,5.1
					c-1.2,0.9-3.1,0.8-4.9-1.7C393.4,23.1,394,21.3,395.1,20.4 M400.6,27.6c2-1.5,2.5-4.1,0.7-6.5c-1.9-2.4-4.7-2.4-6.5-1
					c-1.8,1.4-2.6,4-0.7,6.5C395.9,28.9,398.6,29.1,400.6,27.6"/>
				<path clip-path="url(#SVGID_8_)" fill="#0E2038" d="M410.1,13.9l1,4.1c0.2,0.9,0.8,3.5,4.1,2.7c3.5-0.9,2.9-3.3,2.6-4.5
					l-0.8-3.5c-0.3-1.4-0.1-1.7,0.9-2.1l-0.1-0.3l-3.1,0.8l0.1,0.3c1-0.1,1.3,0,1.7,1.4l0.9,3.6c0.3,1.2,0.2,1.7,0.1,1.9
					c-0.2,0.8-0.9,1.4-1.9,1.7c-2.3,0.5-2.8-1.4-3-2.2l-1-4.4c-0.2-0.9-0.1-1.2,0.9-1.5l-0.1-0.1l-3.8,0.8l0.1,0.3
					C409.7,12.7,409.9,12.9,410.1,13.9"/>
				<path clip-path="url(#SVGID_8_)" fill="#0E2038" d="M423.1,19.1c-1-0.1-1.3-0.4-1.3-1.8l0-5.4h0l6,7.6h0.2l0-7.2
					c0-1.7,0.4-1.7,1.3-1.8v-0.3h-3.2v0.3c0.9,0,1.3,0.1,1.3,1.8l0,4.5h0l-5.3-6.5h-2.4v0.3c0.6,0,0.8,0,1.3,0.8l0,6
					c0,1.5-0.3,1.7-1.3,1.8v0.3h3.2V19.1"/>
				<path clip-path="url(#SVGID_8_)" fill="#0E2038" d="M433.6,20c-0.9-0.1-1.3-0.4-1-1.4l1-6c0.3-1,0.5-1.2,1.5-1l0.1-0.3l-4.1-0.6
					v0.3c1,0.3,1.3,0.4,1,1.4l-1,6c-0.1,1-0.4,1.2-1.5,1v0.3l4,0.6V20"/>
				<path clip-path="url(#SVGID_8_)" fill="#0E2038" d="M437.7,13.8l0.6,8.2l0.1,0.1l5.6-6.3c0.6-0.8,0.9-0.9,1.5-0.8l0.1-0.3
					l-2.7-0.9v0.3c0.4,0.1,0.9,0.4,0.6,0.9c-0.1,0.3-0.5,0.8-0.5,0.8l-3.7,4.1l-0.3-5.1c-0.1-0.8-0.1-1.4-0.1-1.5
					c0.3-0.4,0.5-0.4,1.2-0.1l0.1-0.3l-3.5-1.3v0.3C437.4,12.1,437.7,12.3,437.7,13.8"/>
				<path clip-path="url(#SVGID_8_)" fill="#0E2038" d="M447.8,17.7l-3.3,5.1c-0.5,0.9-0.9,0.9-1.7,0.4l-0.1,0.3l6.3,4l1.8-1.5
					l-0.4-0.3c-1.3,0.9-2.1,0.8-3.5-0.1c-1.8-1-1.8-1.2-1.4-1.5l1.8-2.9l1.8,1.2c0.9,0.6,1,0.9,0.5,1.9l0.3,0.3l1.8-2.7l-0.3-0.3
					c-0.6,0.8-1,1-2.1,0.4l-1.8-1.2l1.7-2.6c0.3-0.4,0.4-0.4,0.6-0.3l1.5,1c1.3,0.9,1.5,1.3,1,2.4l0.3,0.1l1-1.7l-6.2-4l-0.1,0.3
					C448.2,16.6,448.3,16.8,447.8,17.7"/>
				<path clip-path="url(#SVGID_8_)" fill="#0E2038" d="M457,23.9c0.3-0.3,0.4-0.3,0.9,0.3c0.4,0.4,1.7,1.7,0.4,2.9
					c-1.4,1.4-2.8,0-3.7-0.8L457,23.9 M451.5,27.5c-0.8,0.8-1,0.9-1.8,0.1l-0.3,0.3l2.7,2.7l0.3-0.3c-0.8-0.8-0.6-1,0-1.7l1.9-1.9
					l0.5,0.5l-0.6,5.3l1.5,1.5l0.3-0.1c-0.4-0.4-0.5-0.9-0.5-1.3l0.5-4.5c0.6,0.4,2.1,1.4,3.3,0.1c1.5-1.5,0.1-3.3-0.8-4.2l-2.7-2.7
					l-0.1,0.3c0.5,0.8,0.6,0.9-0.1,1.7L451.5,27.5"/>
				<path clip-path="url(#SVGID_8_)" fill="#0E2038" d="M457.9,36.8c-1.2-1.5,0-3.2,0.4-3.7l-0.1-0.3l-2.2,1.9l0.1,0.3
					c0.1-0.1,0.4-0.1,0.6,0.1c0.1,0.4,0.1,1.2,0.8,2.1c1.2,1.7,2.7,1.7,3.7,1c2.3-1.5,0-5.5,1.7-6.7c0.8-0.5,1.5-0.1,1.9,0.4
					c0.8,1.2,0.3,2.7-0.6,3.5l0.3,0.3l2.2-1.9l-0.1-0.1c-0.1,0-0.4,0.1-0.6-0.1c-0.1-0.4-0.3-1.3-0.6-1.9c-0.8-1-2.1-1.7-3.3-0.8
					c-1.2,0.8-1.2,1.8-1,3.3c0.1,2.3-0.1,2.7-0.8,3.2C459.5,37.7,458.4,37.7,457.9,36.8"/>
				<path clip-path="url(#SVGID_8_)" fill="#0E2038" d="M467.1,38.2l-5.5,2.6c-0.9,0.5-1.2,0.4-1.7-0.6l-0.3,0.1l1.7,3.7l0.3-0.1
					c-0.4-0.9-0.4-1.3,0.6-1.8l5.5-2.6c0.9-0.5,1.2-0.3,1.7,0.6l0.3-0.1l-1.8-3.6h-0.3C468.2,37.6,468,37.9,467.1,38.2"/>
				<path clip-path="url(#SVGID_8_)" fill="#0E2038" d="M468.3,42.6c1.5-0.1,1.8,0.1,2.3,1.5l0.1,0.8l-6.5,1.9
					c-1,0.3-1.3,0.3-1.8-0.9l-0.1,0.1l1,3.8l0.3-0.1c-0.3-1,0-1.3,0.9-1.5l6.7-2.1l0.3,0.8c0.4,1.4,0.3,1.8-1,2.6v0.3l2.3-0.6
					l-2.2-7.4l-2.3,0.5L468.3,42.6"/>
				<path clip-path="url(#SVGID_8_)" fill="#0E2038" d="M473.6,57.6l-0.3,0c0,0.4,0,0.9-0.4,1c-0.3,0-0.4-0.1-0.5-0.2l-3.3-1.8
					l2.9-2.3c0.1-0.1,0.4-0.3,0.6-0.3c0.4,0,0.4,0.4,0.4,1l0.3-0.1l-0.3-3.8l-0.3,0.1c0,0.5,0,0.8-1.9,2.3l-2.6,2l-2.4,0.2
					c-1,0.1-1.3,0.1-1.4-1.3h-0.3l0.3,4.2l0.3,0c0-1.2,0.1-1.4,1.2-1.5l2.7-0.2l3.2,1.8c1.5,0.8,1.7,1.3,1.7,1.8l0.3,0L473.6,57.6"
					/>
				<path clip-path="url(#SVGID_8_)" fill="#0E2038" d="M428.7,95.5c-11.7,1.4-23.4-3-31.4-12.2c-5.5-6.4-8.7-14-8.9-22.3
					c0-1.6,2.1-2.3,3.4-2.5c2.7-0.4,4.8-2.1,7.1-2.8c0.7-0.2,1.8,0.5,2.5-0.2c1.4-1.4,2.3-2.9,4.4-2.8c1.4,0.3,2.1,1.4,3.2,1.9
					c2.1,0.9,4.4,1.1,6.2,2.7c0.7,0.9,1.2,2.1,0.9,3.2c-0.7,2.1-0.2,5-2.5,6h-1.2c-1.8,0.9-4.1,1.4-6.2,0.9c-0.7,0-1.8-0.5-2.1,0.7
					c0,0.5,0.7,0.7,1.1,0.7c2.8,0,5.3,0.2,8-0.7c1.1-0.2,2.1,0.2,3.2,0.2c2.1,0.2,4.4,0.9,6.2-0.5c-0.7-1.4-2.5,0.5-3.4-0.7
					c-0.9-1.6-1.1-4.4,0.7-5.5c0.5-0.2,0.9,0.2,0.9,0.7c-0.2,0.9,0,1.6,0,2.5c0,0.4-0.9,0.9-0.7,1.4c0.7,0.7,2.3,0.2,2.3-0.5
					c0.5-1.6,1.4-3.2,0.7-4.8c0-0.2-1.2-0.2-0.9-0.9c0.7-1.1,0.9-2.1,0-3.2c-0.5-0.7,0.9-0.9,1.2-1.6c0.2-1.6-1.2-3.5-0.2-4.6
					c0.7-0.9,0-1.8,0.5-2.4c0.7-0.8,1.6,0,1.6,0.6c0,1.4,0.2,2.9,0,4.1c-0.5,1.8,1.1,2.6,2.1,3.5c1.2-1.7-0.9-4.4,0.7-5.5
					c0.7-0.6,0.7,1.4,0.9,2.1c0,0.8,0.9,1.2,1.4,1.4c0.6,0.4,2.1-0.6,2.3,0.6c0,1.9-2.3,2.6-2.3,4.2c0.3,0.9,0,2.1,0.3,3
					c0.4,1.1,0.9,2.8,0,3.7c-1.2,1.2-2.1-1.1-1.9-2.1c0.5-2.1,0.2-4.6-1.6-6c-0.5-0.2-1.1,0-1.1,0.7c0,1.8,0,3.9-0.2,5.7
					c0,1.1-0.9,2.3-0.7,3.4c0.2,0.7,1.4-0.2,2.1,0c3.6,1.1,7.6,0,11.4,0.2c3.1,0.5,6.3,0.9,9.2,0.5c0.3,0-0.5-0.9-1.2-1.1
					c-1.7-0.5-3.5,0.2-5,0c-1.2-0.2-1.9-1.4-3.1-1.4c-1.2,0.2-2.3,0.2-3.5,0.2c-1.3,0.2-2.7-0.9-2.9-2.3c-0.3-1.8-0.4-3.7,0.5-5.5
					c0.9-1.2,2.1-1.4,3.5-1.8c3.8-0.7,7.3-1.7,10.9-2.6c0.8-0.1,1.9,0,2.8,0c0.6-0.1,1.2-0.6,1.8-0.4c2.6,1.5,4.9,2.7,6.9,4.8
					c0.5,0.7,2,0.5,1.8,1.4c-0.1,6.9-1.5,13.5-5.6,19.7C448.4,88.6,439.3,94.3,428.7,95.5 M389.7,53.9c0.2,0.3,0.2,0.5,0.2,0.8
					c0,0.7-0.4,0.9-0.9,1.1c-0.2,0-0.7-0.2-0.7-0.7C388.6,54.4,389,53.8,389.7,53.9 M390.2,50.9c0.5-0.3,0.9,0.3,0.9,0.6
					c0,0.8-0.9,1.2-1.4,1.4c-0.4,0-0.7-0.4-0.7-0.9C389,51.2,389.7,51.2,390.2,50.9 M390.2,49.1c0.7-0.8,0.9-0.5,1.4-0.3
					c0.5,0.3,0.7,0.6,0.5,1.2c-0.5,0.4-1.2,0.6-1.8,0.3C389.9,49.8,389.8,49.5,390.2,49.1 M391.3,57.1c-0.5,0.7-1.4,1.6-2.3,1.4
					c0,0-0.2-0.2-0.2-0.4c0.5-0.9,1.1-1.6,2.1-1.8C391.5,56,391.6,56.7,391.3,57.1 M390.8,55c-0.9-0.6-0.5-2.3,0.7-2.4
					c0.9,0,0.7,1.2,0.5,1.8C391.8,54.8,391.3,55.3,390.8,55 M391.3,45.4c0.2,0,0.5,0,0.7,0.3c0.7,0.6,0.7,2.6-0.5,2.3
					c-0.9,0-0.9-0.9-0.9-1.7C390.6,45.9,390.8,45.4,391.3,45.4 M393.1,43.4c0.5,0.6,1.6,0.9,1.8,1.8c0,0.3-0.2,0.3-0.2,0.5
					c-0.7-0.8-2.1-0.3-2.3-1.4C392.4,43.9,392.9,43.4,393.1,43.4 M393.4,40.8c0.5,0,0.7,0.5,0.7,0.9c0,0.3-0.2,0.8-0.5,0.8
					C392.7,42.5,392.7,41.1,393.4,40.8 M395.7,37.3c0.5,0,0.9,0.8,1.2,1.2c0.2,1-0.7,1.4-1.4,1.4c-0.9,0-0.9-0.4-0.9-0.9
					C394.7,38.4,395,37.6,395.7,37.3 M395.9,41.6c0.2-0.3,0.5-0.5,0.7-0.8c0.2,0.3,0.2,0.8,0.2,0.9c-0.2,0.3-0.5,0.3-0.7,0.3
					C396.1,42,395.7,41.7,395.9,41.6 M396.4,44.9c-0.9,0.5-1.4-0.6-1.4-1.3c0-0.5,0.5-1.2,0.7-1.2C396.6,42.7,397.5,44.3,396.4,44.9
					 M397,45.9c0.2,0,0.7,0.1,0.7,0.4c0,0.3-0.5,0.5-0.7,0.8C396.8,46.6,396.6,46.1,397,45.9 M397.7,41.7h0.9
					c0.7,0.8,0.2,2.2-0.5,2.2C397,44,396.8,41.7,397.7,41.7 M398.4,38.5c0,0,0.4,0.4,0.2,0.5c-0.2,0.3-0.5,0.5-0.7,0.6
					c0-0.1-0.2-0.1-0.2-0.4C397.7,38.8,398,38.5,398.4,38.5 M398.9,37.3c0.2-0.1,0.7-0.1,0.9-0.1c0.2,0.1,0.2,0.6,0.2,0.9
					c0,0-0.2,0.3-0.5,0.3C399.1,38.4,398.5,37.7,398.9,37.3 M400,32.3c0.5,0,0.7,0.5,0.7,0.9V34c0,0-0.2,0.1-0.5,0.1
					C399.1,34.1,399.1,32.6,400,32.3 M401.6,31.2c0.2,0,0.4,0.5,0.7,0.6c0,0.3,0,0.8-0.2,0.8C401.2,32.9,400.9,31.2,401.6,31.2
					 M402.3,36.2c-0.2,0.5-0.2,1.4-0.7,1.4c-0.9,0.3-1.8-0.6-1.8-1.5c-0.2-1.2,1.2-2,2.1-1.9C402.3,34.1,402.7,35.4,402.3,36.2
					 M402.5,30.3c0.2-0.5,0.8-0.4,0.9,0c0.2,0.6,0.9,1.8,0,1.8C402.8,32.3,402.3,30.9,402.5,30.3 M404.6,28.6c0.2,0,0.3,0.1,0.5,0.3
					c0.7,0.5,0.7,2.1-0.2,1.8C403.9,30.7,403.7,29.1,404.6,28.6 M406.2,27.7c0.5,0,0.7,0.8,0.7,1.2c0,0.5,0,1.2-0.4,1.2
					C405.5,30,405.5,28,406.2,27.7 M406.9,33.2c-0.2,0.5-0.2,1.2-0.7,1.4c-0.9,0-0.9-0.9-1.2-1.7c-0.2-0.6,0.5-2.1,1.4-1.5
					C406.9,31.8,407.2,32.6,406.9,33.2 M406.7,40.5c-1.8,0.8-0.9-0.4-1.2-0.6c0-0.4,0.2-0.9,0.7-1.2
					C407.6,38.5,407.1,40.4,406.7,40.5 M407.6,31.8h0.5c0.5,0.5,0.2,1,0.2,1.4l-0.5,0.3C407.4,32.9,407.1,32.3,407.6,31.8
					 M408.8,26.8c0.4,0.3,0.2,0.6,0.2,1.2c0,0.6-0.2,1.4-0.9,1.2c-0.5-0.3-0.2-0.9-0.5-1.4C407.6,27.3,408.1,26.6,408.8,26.8
					 M410.1,33.2c-0.7,0.5-0.9-0.9-1.1-1.5c-0.5-1.2,0.2-1.7,0.4-2.3C410.6,30.3,411,32.3,410.1,33.2 M409.9,26.8
					c0.2,0,0.7,0.3,0.7,0.5c0,0.1-0.5,0.4-0.7,0.6C409.7,27.5,409.4,27.1,409.9,26.8 M410.8,37.6c-0.5,0.3-0.9,0.8-1.4,0.5
					c-0.2-0.3-0.2-0.5-0.2-0.8c0-0.6,0.5-1.3,1.2-1.3C411.3,36.1,411.3,37.2,410.8,37.6 M412,29.4c0.5-0.3,1.2-0.5,1.6,0
					c0.4,0.6,0.7,1.3,0.2,2.1c-0.5,0.6-0.9,0-1.4,0c-0.5,0-0.7,0.6-1.1,0.4C410.6,31.2,411,29.8,412,29.4 M412,27.7
					c0,0,0.2,0.3,0.2,0.5v0.4c-0.2,0.3-0.5,0.3-0.7,0.3c-0.2-0.3-0.2-0.6-0.2-0.9C411.5,27.7,411.7,27.7,412,27.7 M412.4,25
					c0.5,0,0.9,0.6,1.2,1.3c0.2,0.8-0.7,1.7-1.4,1C411.7,26.6,411.3,25.3,412.4,25 M413.8,24.8c0.2-0.3,0.7-0.3,0.9-0.3
					c0.2,0.3,0.6,0.9,0.2,0.9C413.6,25.7,413.8,25,413.8,24.8 M415.6,25.9l0.5,0.3v0.9l-0.5,0.3C415.2,26.8,415.2,26.3,415.6,25.9
					 M416.8,36.2c-0.2,0.5-0.7,0.3-1.1,0c-0.2-0.1-0.2-0.4-0.2-0.6c0-0.6,0.2-1.4,0.7-1.4C417.2,34,416.8,35.5,416.8,36.2
					 M417.9,31.4c0,0,0.1,0.3,0.2,0.4c0.5,0.8,0,1.9-0.7,1.9c-0.5,0-0.7-0.5-0.9-0.9C416.3,32.1,417.2,31.2,417.9,31.4 M416.8,25.4
					c0,0,0.2-0.1,0.5-0.1c0.9,0.1,1.6,2.1,0.9,2.1h-0.9C416.8,26.8,416.5,26.2,416.8,25.4 M417.7,23.6c0.5-0.5,0.9-0.5,1.4,0
					c0.2,0.3,0.3,0.5,0.2,0.6c-0.2,0.8-0.7,1.4-1.4,1.2C417.2,25,417,24.3,417.7,23.6 M420.7,24.3c0.7,0.3,0.3,1.4,0,2.1
					c-0.2,0.5-0.7,1-1.2,0.8C418.9,26.2,419.8,23.9,420.7,24.3 M421.6,23.6c0.2,0,0.9,0,0.7,0.3c-0.2,0.3-0.5,0.9-0.9,0.3
					L421.6,23.6 M421.8,34.1c-0.2,0-0.7-0.1-0.7-0.6c0-0.5-0.2-1.2,0.2-1.4c1.1-0.3,0.4,0.8,0.9,0.9C422.5,33.5,422.1,34,421.8,34.1
					 M422.8,35.8c0,0.6,0,1.8-0.9,1.5c-0.4-0.4-0.9-2.1,0.2-2.3C422.5,35,422.8,35.3,422.8,35.8 M423.7,29.8c0.4,0,1.1,0.5,0.9,0.9
					c-0.2,0.8-0.5,1.4-1.1,1.4c-0.5,0-0.7-0.3-0.7-0.6C422.8,30.7,423,30,423.7,29.8 M423,23.4c0.9,0,0.7,1.7,0,1.7
					c-0.2,0-0.2-0.5-0.2-0.8C422.8,24.1,422.8,23.4,423,23.4 M424.6,27.1c0,0.9-0.5,2.1-1.4,1.5c-0.7-0.1-0.5-1.8,0.5-2.3
					C423.9,26.3,424.6,26.3,424.6,27.1 M424.4,23.9c0-0.5,0.2-0.9,0.7-0.9c1.4,0.4,0.9,2.4,0,3.2c-0.2,0-0.5-0.3-0.7-0.3
					C423.7,25.3,424.4,24.5,424.4,23.9 M426,30c-0.7,0.3-1.2-0.6-0.9-1.4c0.2-0.6,0-1.5,0.7-1.5C427.3,26.8,427.3,29.8,426,30
					 M426.9,23.4c0.2,0,0.2-0.3,0.5-0.3c1.2,0.3,0.7,1.7,0,2.2l-0.5-0.3C426.6,24.5,426.4,23.9,426.9,23.4 M428.7,25.7
					c0.5,0.5,0.2,1.4-0.4,1.7c-0.9,0.1-1.2-1.2-0.7-1.7C428,25.4,428.3,25.4,428.7,25.7 M429.8,29.8c0.5,0.5,0.9,1.9-0.3,2.1
					c-0.4,0-0.5-0.4-0.6-0.9C428.7,30.3,429.2,29.7,429.8,29.8 M429.6,23.1c0.5,0,1.2,0.8,1.2,1.4c0,0.5,0.3,1.4-0.4,1.7
					c-0.8,0-0.9-0.9-1.2-1.4C429.2,24.3,429.2,23.4,429.6,23.1 M431.5,28c0.3,0.9-0.5,1.4-1.2,1.4c-0.5,0-0.8-0.5-0.8-0.9
					c0.3-0.8,0.5-1.9,1.4-1.7C431.2,27.1,431.4,27.6,431.5,28 M431.8,24.1c0.4-1,1.5-0.5,2.1,0.4c0,0.3-0.3,0.3-0.3,0.5
					c0,0.9-0.9,1.2-1.2,1.2C431.2,26.3,431.5,24.8,431.8,24.1 M434.5,27.1c0,0.6-0.5,1.2-1.2,0.9c-0.6-0.5-0.3-2.3,0.9-2.1
					C434.7,26.2,434.5,26.6,434.5,27.1 M435.1,29.8c0.3,0.8-0.1,1.2-0.9,1.4c-0.3,0-0.4,0-0.6-0.3c-0.5-0.6-0.3-2.1,0.6-2.3
					C435,28.6,435,29.4,435.1,29.8 M435.6,24.5l0.3,0.5c-0.3,0.3-0.5,0.3-0.8,0.4c-0.1-0.1-0.1-0.4-0.1-0.6
					C435.1,24.5,435.4,24.5,435.6,24.5 M436.5,26.3c0,0.3-0.4,0.5-0.6,0.8c-0.5-0.5-0.3-0.8,0-0.9C436.1,26.2,436.5,26.2,436.5,26.3
					 M438.2,26.2c0.6,0.1,0,1.2-0.3,1.8c-0.3,0.6-0.6,0.9-1.2,0.6C436.1,27.7,437.3,25.7,438.2,26.2 M438.6,28.2
					c0.3-0.8,0.3-1.9,0.9-1.9c1.2-0.1,1.5,1.3,0.8,2.2c-0.3,0.1-0.8,0.4-0.9,0.6C438.8,29.1,438.3,28.6,438.6,28.2 M441.6,34
					c-0.3,0.4-0.3,1-0.8,1c-1.4-0.1-0.9-2.2,0-2.4C441.6,32.3,441.9,33.4,441.6,34 M442.9,28.6c0.8,0.3,0.3,1.2,0.3,1.9
					c0,0.6-0.6,1.5-1.4,1.2C441.1,30.7,441.6,28.2,442.9,28.6 M442.9,34.9h-0.4c-0.5-0.9-0.3-1.9,0.6-2.3c0.3,0,0.3,0.6,0.3,0.9
					C443.4,34,443.2,34.4,442.9,34.9 M442.7,38.5c-0.4,0-0.9-0.1-0.9-0.6c-0.1-0.9,0.3-1.7,0.9-1.8c0.8,0,1,0.6,1,1.2
					C443.7,37.6,443.4,38.4,442.7,38.5 M444.6,29.4c0.6-0.3,0.9,0.4,0.9,1.2c0,0.6-0.5,1.5-0.9,1.3
					C443.4,31.8,443.7,29.7,444.6,29.4 M444.8,35.3c-0.5-0.3-0.3-0.6-0.3-1.2c0-0.4-0.3-0.9,0.3-1.2c0.6,0,0.6,0.8,0.9,1.2
					C446,34.7,445.5,35.5,444.8,35.3 M446.4,36.2c1.2,1.7-0.3,1.7-0.4,1.7c-1,0.3-1.2-0.9-0.8-1.7C445.5,35.8,446.1,35.8,446.4,36.2
					 M446.9,31.2c0.9-0.3,0.5,0.8,0.4,1.4c-0.3,1.2,1.2,1.5,2.1,1.8c0.3,0.3,0.5,0.5,0.3,0.6c-0.6,0.8-2.1,0.8-2.6-0.1
					C446.6,33.8,445,31.7,446.9,31.2 M448.7,32.3c0.6,1.7,0,0.6-0.3,0.9c-0.3-0.3-0.3-0.4-0.3-0.6C448.2,32.6,448.4,32.3,448.7,32.3
					 M450.7,38.4c0.3,0.4,0,1.2-0.6,1.2c-1.2-0.3-0.9-1.7-0.9-2.6c0,0,0.1-0.3,0.4-0.3C450.5,37,450.5,37.6,450.7,38.4 M451.2,35.8
					c0.4-0.3,0.9,0.4,1.2,0.9c0.1,0.6-0.3,1.2-0.5,1.2C451,37.6,449.8,36.1,451.2,35.8 M453.3,38.4c0,0,0.3,0.1,0.3,0.4
					s0.4,0.8,0.1,0.9c-0.1,0.5-0.6,0.3-1.2,0c-0.1-0.1-0.1-0.4-0.1-0.6C452.5,38.5,452.8,38.1,453.3,38.4 M454.2,40.5
					c0-0.1,0.5-0.4,0.6-0.1c0.5,0.4,0.6,1,0.3,1.3c-0.3,0.3-0.6,0.5-0.9,0.3C453.6,41.6,454.2,41.1,454.2,40.5 M456.2,42.9
					c-0.3,0.3-0.4,0.5-0.6,0.8c-0.5,0-0.8-0.3-0.8-0.8c0-0.4,0.3-0.6,0.8-0.6C456,42.2,456.6,42.6,456.2,42.9 M456.5,44.9
					c0-0.1,0.4-0.4,0.6-0.1c0.3,0.4,0.8,0.8,0.8,1.3c0,0.5,0.1,1-0.3,1.2h-0.5C456.5,46.6,456.2,45.7,456.5,44.9 M458.6,50.3
					c-0.3,0.1-0.6,0.1-0.9,0.1c-0.3-0.1-0.8-0.6-0.5-1c0.3-0.5,0.3-1.2,0.8-1.2C458.8,48.4,459.2,49.7,458.6,50.3 M456.8,54.1
					c0.1,0,0.4,0.3,0.6,0.5c0,0.1-0.3,0.7-0.5,0.7c-0.4,0-0.6-0.5-0.6-0.9C456.2,54.4,456.5,54.1,456.8,54.1 M454.8,50.9
					c0.3-0.3,0.5-0.5,0.8-0.5c0.6,0,0.9,0.8,0.6,1.2c0,0-0.3,0.3-0.4,0.3C455.1,52.1,454.7,51.4,454.8,50.9 M453.9,52.6
					c0.3,0,0.5,0,0.8,0.1c0.1,0.3,0.6,0.8,0.4,1.2c-0.4,0.5-0.9,0.5-1.4,0C453.3,53.5,453.6,52.7,453.9,52.6 M453,49.1
					c0.5-0.3,0.9,0.4,0.9,0.9c0,0.4-0.3,0.9-0.6,0.9C452.4,50.9,452.4,49.5,453,49.1 M452.1,51.6c0.3,0,0.4,0.3,0.6,0.5
					c0,0.3-0.3,0.6-0.4,0.6c-0.5,0-0.8-0.4-0.8-0.9C451.6,51.8,451.9,51.6,452.1,51.6 M451.5,48.6c0.6,0,0.9,0.8,0.6,1.2
					c-0.3,0.3-0.6,0.5-0.9,0.3c-0.3-0.3-0.3-0.6-0.3-0.9C451,48.9,451.2,48.6,451.5,48.6 M452.4,44c-0.3,0.3-0.5,0.3-0.8,0.3
					c-0.1-0.3-0.1-0.6-0.1-0.9c0.1-0.3,0.4-0.3,0.6-0.3C452.4,43.4,452.5,43.9,452.4,44 M451.9,42.5c-0.6-0.5-0.6-1.9,0.3-2.1
					c0.6,0,0.6,0.6,0.9,1.2C453,42,452.5,42.9,451.9,42.5 M456.5,48.2c-0.3,0.4,0.3,1.3-0.6,1.3c-1.2-0.1-1.4-2.3-0.5-2.4
					C456,46.8,456.8,47.5,456.5,48.2 M455.3,45.9c-0.5,0.4-0.9,0.4-1.7,0.4c-0.4,0-0.9-0.3-0.9-0.6c0-0.9,0.3-1.7,1.2-1.8
					C455.1,43.6,455.9,45.2,455.3,45.9 M450.5,44.8c1-0.3,1.9,1.8,0.8,2.4c-0.5,0.3-0.6-0.5-0.9-0.9
					C449.8,45.7,450.1,44.8,450.5,44.8 M448.7,50.7c0-0.4,0.5-1.2,0.9-0.9c0.3,0.3,0.5,0.6,0.5,0.9c0,0.3-0.5,0.5-0.8,0.8
					C448.9,51.4,448.7,51.2,448.7,50.7 M447.8,52.3c0.4-0.5,0.9-0.5,1.4,0c0,0,0,0.3,0,0.4c-0.3,0.5-0.8,0.8-1.2,0.3
					C447.8,52.7,447.5,52.6,447.8,52.3 M446.9,47.7c0.6-0.6,2.3-1.7,2.4,0c0,1.2-1.5,1.8-2.4,1.4C446.4,48.6,446.4,48.2,446.9,47.7
					 M448,40.5c-1,0-1.4-0.9-1.2-1.3c0.1-0.5,0.9-0.3,1.3,0C448.9,39.7,448.7,40.5,448,40.5 M447.8,43.6c-0.9,0-0.9-1.9-0.3-2.1
					c0.5,0,0.9,0.4,0.9,0.9C448.4,42.9,448.4,43.6,447.8,43.6 M449.8,40.5c1.4,0,1.2,2.3,0.3,3.1c-0.3,0-0.5-0.3-0.8-0.8
					C448.9,42,448.9,40.5,449.8,40.5 M448.9,45.9c-0.8,0.1-0.8-0.3-0.8-0.5c0-0.5,0.3-1.2,0.8-1.2C449.6,44.5,449.3,45.4,448.9,45.9
					 M446.6,44.9l0.4,0.3v0.9l-0.4,0.3C446.1,45.9,446.1,45.4,446.6,44.9 M445.2,42.7c0,0,0.3-0.3,0.5-0.3c0.6,0,0.9,0.6,0.6,1.2
					c-0.4,0.4-0.6,0.3-0.9,0C445.2,43.4,445.2,42.9,445.2,42.7 M444.6,50.9c0.3,0,0.3-0.3,0.4-0.3h0.4c-0.1,0.1,0,0.3-0.1,0.3
					c0,0,0,0-0.1,0.1h-0.4C444.6,51.1,444.6,50.9,444.6,50.9 M444.1,46.6c-0.3-0.3-0.1-0.5-0.3-0.6c-0.4-1-0.1-1.9,0.3-2.1
					c0.8-0.3,0.9,0.6,1.2,1.3C445.5,45.9,445,46.8,444.1,46.6 M442.9,48.9c0,0-0.3-0.3-0.3-0.5c0.3-0.6,1.2-1.2,1.7-0.4
					c0,0.3-0.1,0.3-0.3,0.4C443.8,48.9,443.4,49.1,442.9,48.9 M441.6,50c1.3-0.3,2.6,1.5,2,2.6c-0.8,1.3-3.7,2.1-4,0
					C439.5,51.4,440.5,50.3,441.6,50 M439.7,46.8c0.5,0,0.8,0.6,0.9,0.9l-0.1,0.5c-0.3,0.1-0.8,0.4-1,0.1
					C439.1,48,439.1,47.1,439.7,46.8 M439.1,53.9c0.9,0.8-0.5,2.3-1.2,1.7c-0.3-0.2-0.6-0.5-0.6-0.8
					C437.3,53.9,438.3,53.8,439.1,53.9 M436.8,48.4c-0.5-0.6-0.9-1.8,0-1.8c0.9-0.3,0.9,1.2,1.2,1.8
					C437.4,48.4,437.3,48.9,436.8,48.4 M431.9,31.7c-0.1,0-0.6-0.3-0.6-0.8c0-0.4,0.5-1.2,0.9-0.9c0.3,0.3,0.3,0.6,0.3,0.9
					C432.4,31.2,432.1,31.7,431.9,31.7 M434.5,33.8c-0.6,0.9-2.3-0.5-2.1-1.4c0.3-0.3,0.6-0.1,0.9-0.3C434.2,31.8,435,33,434.5,33.8
					 M435,37.6c-0.8,0-0.5-0.9-1-1.2c0.3-0.4,0.3-1.2,1-0.9c0.4,0.3,0.4,0.6,0.4,1.2C435.4,37.2,435.1,37.3,435,37.6 M434.7,45.9
					c0.3,0.1,0.4,0.6,0.4,0.9c0,0.3,0,0.6-0.4,0.9c-0.3,0-0.5-0.3-0.8-0.3C433.3,47.1,433.9,45.9,434.7,45.9 M433,41.7
					c-0.3-0.4-0.6-1.2-0.3-1.5c1-0.9,2.3-0.3,2.6,0.6c0,0.5-0.4,1.2-1.2,1.2C433.8,42,433.3,42.2,433,41.7 M432.4,44
					c0,0,0.3-0.1,0.4-0.1c0.3,0.6,1.3,1.5,0.5,2.2c-0.3,0.3-0.6,0.8-0.9,0.5C431.8,45.9,432.1,44.9,432.4,44 M432.1,37.9
					c0.5-0.5,0.9-0.6,1.4-0.5c0.6,0.5,0.4,1.7-0.5,1.9C432.7,39.3,431.5,38.5,432.1,37.9 M432.7,36.7c-1.2,0-0.8-1.7-0.5-2.3
					c0.5-0.6,0.6,0,1.2,0.5C432.7,35.3,433.6,36.4,432.7,36.7 M435.9,43.6c0,0.4-0.3,0.9-0.8,0.9c-0.9,0-0.9-1.8,0-1.8
					C435.6,42.7,435.9,43.1,435.9,43.6 M435.9,32.6c0.3-0.5,0.6-0.8,1.2-0.5c0.6,0.5,0.8,1.5,0,1.9c-1.2,0.4-1.2-0.3-1.4-0.8
					C435.6,33,435.6,32.9,435.9,32.6 M436.8,31.7h-0.6c-0.8-0.8,0-2.8,1.2-2.1C438.2,30,437.7,31.7,436.8,31.7 M436.8,39.9v0.5
					l-0.5,0.1c-0.4-0.1-0.1-0.6-0.1-1c0,0,0.1-0.3,0.4-0.3C436.8,39.5,436.8,39.7,436.8,39.9 M436.5,34.9c0.9,0.4,0.9,1.5,0.5,2.3
					C435.9,36.2,436.2,35.5,436.5,34.9 M438.8,39.5c-0.3,0.4-0.5,0.9-0.6,0.9c-1.2-0.3-1.2-2.1-0.3-2.3
					C438.6,37.9,439.2,38.8,438.8,39.5 M439.1,35.8v0.4l-0.5,0.3c-0.4-0.3-0.3-0.6-0.4-1.2c-0.3-0.4,0.4-1.2,0.9-0.9
					C439.5,34.7,439.1,35.3,439.1,35.8 M439.3,32.3c-0.5-0.6-0.3-2.3,0.6-2.3c1.2,0,0.5,1.4,0.5,2.1C440,32.1,439.7,33,439.3,32.3
					 M440.9,37.6c-0.4,0.3-0.6,0.8-1.2,0.3c-0.3-0.3-0.3-0.5-0.3-0.6c0.3-0.5,0.8-1.2,1.2-1C440.9,36.4,441.5,37.3,440.9,37.6
					 M439.5,42.5c-0.6-0.5-0.9-1.7-0.4-2.3c0.9-1.2,1.8,0.3,1.8,1.2c0,0.4,0.3,0.9,0,1.2C440.5,42.9,440,42.7,439.5,42.5
					 M438.2,44.5c-0.8-0.5-0.9-1.8,0.1-2c0.8,0,1,0.6,1,1.2c0,0.3,0,0.4-0.3,0.6C438.8,44.5,438.3,44.8,438.2,44.5 M440,44.5
					c0,0,0.1,0.3,0.3,0.4c0.3,0.8-0.3,1.2-0.9,1c-0.3-0.3-0.3-0.5-0.3-0.8C439.3,44.8,439.5,44.3,440,44.5 M441.4,39.9
					c-0.8,0-0.9-0.9-0.5-1.4c0,0,0.4,0.1,0.5,0.3C441.6,39.3,441.8,39.7,441.4,39.9 M442.3,44c-0.9,0-0.9-1.8-0.3-2.1
					c0.5,0,0.6,0.8,0.6,1.2C442.7,43.4,442.5,44,442.3,44 M442.3,47.5c-0.5,0.3-1.2-0.4-0.9-0.9c0.3-0.6,0-1.8,0.9-1.7
					C443.4,44.9,443.4,47.1,442.3,47.5 M444.1,39c0-0.5,0.3-0.6,0.8-0.6c0.4,0,0.9,0.3,0.6,0.6c-0.3,0.3-0.5,0.5-0.6,0.6
					C444.3,39.7,444.1,39.5,444.1,39 M444.3,41.6c0,0.4-0.3,1.2-0.6,0.9c-0.5-0.3-1.2-1.7,0-2.1C444.3,40.4,444.3,41.1,444.3,41.6
					 M430.7,39.3c1,0,1.4,1.3,1.2,2.3c-0.1,0.4-0.6,0.3-0.9,0C430.6,40.8,429.5,39.3,430.7,39.3 M431,36.7v0.6c0,0-0.3,0.3-0.4,0.3
					c-1-0.3-1-1.5-0.3-1.8C430.7,35.8,431,36.2,431,36.7 M430.7,34.4c-0.1,0.5-1.2,0.6-1.3-0.3c0-0.4-0.4-1.3,0.1-1.3h1
					C431,33.2,430.7,34,430.7,34.4 M429.8,41.3c0,0,0.1,0.3,0.3,0.4c0.6,0.5,0.5,1.4,0,1.4C429.2,43.4,428.7,41.6,429.8,41.3
					 M428.9,43.4V44c-0.2,0.3-0.4,0.5-0.7,0.3c-0.5-0.4-0.7-1.5,0-1.8C428.7,42.5,428.9,42.9,428.9,43.4 M427.6,40.8
					c0.2-0.4,0.5-1.2,0.9-1.3c0.2,0,0.7,0.1,0.7,0.6c-0.3,0.6-0.7,1.8-1.6,1.5C427.1,41.6,427.4,41.2,427.6,40.8 M428,28.2
					c0.2,0.3,0.7,0.4,0.5,0.9l-0.5,0.3C427.6,29.1,427.8,28.6,428,28.2 M427.8,31.4h0.5c0.2,0.3,0.4,0.8,0.2,0.9
					c-0.2,0.3-0.5,0.3-0.7,0.3C427.3,32.3,427.3,31.7,427.8,31.4 M426.2,36.4c-0.4-0.4-0.2-0.6-0.2-1.4c0-0.6-0.2-1.3,0.7-1.5
					c0.9,0,0.5,1.4,0.9,1.5c1.4,0.5,1.6,1.7,1.4,2.8l-0.4,0.3C427.6,37.6,427.1,37,426.2,36.4 M426.4,41.3c-0.4,0.6-1.4,0.9-1.6,0
					c-0.2-1.4,1.2-2.6,2.1-2.3C427.8,39.3,427.1,40.3,426.4,41.3 M426.4,44.3h-0.7c-0.5-0.4-0.5-1.2,0.2-1.5c0,0,0.3,0,0.4,0.1
					c0.2,0.3,0.5,0.5,0.5,0.8C426.9,43.9,426.6,44,426.4,44.3 M424.1,43.9c0.7-0.3,1,0.1,1.2,0.6c0.2,0.6,1.4,0.6,1.4,1.4
					c-0.2,1.2-2.1,1.3-2.8,0.4C423.2,45.4,423.2,44.5,424.1,43.9 M423,43.4c-0.2-0.3-0.5-0.6-0.2-0.9c0.2-0.3,0.5-0.3,0.7-0.3
					c0,0,0.2,0.3,0.2,0.5v0.4C423.4,43.4,423.2,43.6,423,43.4 M422.3,45.9c0.9,0,0.9,1.8,0.2,2.3c-0.5,0-0.7-0.8-0.7-1.2
					C421.8,46.6,421.8,45.9,422.3,45.9 M422.3,39.7c-0.2,0-0.5-0.1-0.7-0.4c-0.2-0.5,0.2-1.2,0.7-1.2
					C422.8,38.4,423,39.7,422.3,39.7 M423.4,40.4c0,0.9-0.5,0.9-0.9,0.9c0,0-0.2-0.3-0.2-0.5c0-0.4,0.2-0.6,0.7-0.6
					C423.2,40.2,423.4,40.4,423.4,40.4 M424.1,35.8c-0.9,0-1.3-1.5-0.7-2c0.2-0.3,0.2-0.5,0.4-0.5c0.7,0,0.9,0.8,0.9,1.2
					C425,34.9,424.8,35.8,424.1,35.8 M425.5,31.2c0.7-0.3,1.1,0.5,0.7,0.9c-0.2,0.3-0.2,0.9-0.4,0.9C424.8,33,425,31.7,425.5,31.2
					 M425.5,37.9c0,0.6-0.4,1-0.9,1.2c-0.7,0.3-1.4-0.5-1.1-1.2c0.2-0.5,0.4-0.9,0.9-0.9C425,37,425.3,37.3,425.5,37.9 M420.9,44.3
					c0-0.4,0-1.2,0.5-1.4c0.4,0,0.9,0.5,1.1,1c0,0-0.1,0.3-0.2,0.4c-0.2,0.3-0.5,0.5-0.7,0.6C421.1,44.9,420.9,44.8,420.9,44.3
					 M420.7,47.2c-0.5-0.4-0.2-0.9,0-0.9c0.5,0,0.7,0.5,0.7,0.8C421.4,47.2,420.9,47.2,420.7,47.2 M413.3,49.1c0.9-1.4,3-2.3,3.9,0
					h0.7c0.7,0.9,0.7,2.4-0.2,2.7c-0.2,0.3-0.7,0-1.2-0.3C415.4,50.9,412,50.7,413.3,49.1 M411.7,47.7c0.2-0.6,0.7-0.9,1.2-0.9
					c0.2,0.3,0.5,0.9,0.2,1.2C411.5,49.4,412.2,47.7,411.7,47.7 M411.5,53.9c0-0.1,0-0.6,0.2-0.9c1.2-0.3,1.2,1.7,0.2,1.8
					c-0.2,0-0.7-0.1-0.7-0.4C411.3,54.1,411.5,54.1,411.5,53.9 M411.3,50.4c0.2-0.1,0.4-0.1,0.7-0.1c0,0,0.2,0.1,0.2,0.4
					C410.6,51.4,411.5,50.7,411.3,50.4 M411.7,39.3c0,0.3-0.4,0.3-0.7,0.3c-0.5-0.5-0.2-1,0-1C411.5,38.5,411.7,39,411.7,39.3
					 M412,35.5c-0.7,0-0.8-0.6-0.7-1.2c0.2-0.6,0.7-1.5,1.4-1.2C413.3,34,413.1,35.3,412,35.5 M412.2,37c0,0,0.2-0.3,0.5-0.3
					c0.7,1.7,0,0.6-0.2,0.9C412.2,37.3,412.2,37.2,412.2,37 M413.3,42c0.7,0.5,0.9,1.9,0,2.6c-0.5,0.3-0.9-0.5-0.9-0.9
					C412.4,42.9,412.6,41.7,413.3,42 M415.6,44c0,0.5-0.2,0.9-0.7,1.2c-0.9,0-0.7-1.3,0-1.8C415.2,43.4,415.6,43.6,415.6,44
					 M417.2,43.9c0,0.4-0.2,0.9-0.7,0.9c-0.4-0.5-0.4-1.2,0-1.7C416.8,43.1,417.2,43.4,417.2,43.9 M417.7,41.3
					c0,0.6-0.5,0.9-0.9,1.2c-0.7,0.3-1.5-0.5-1.1-1.2C416.1,40.4,417.5,40.2,417.7,41.3 M417.9,39.5c-0.2,0.4-0.7,0.1-1.2,0
					c-0.4-0.8,0-1.8,0.7-1.7C419.1,38.1,418.2,39,417.9,39.5 M417.9,30.6c-0.2,0-0.5-0.3-0.5-0.3c0-0.6,0-1.7,0.9-1.8
					c0.2,0,0.2,0.6,0.2,0.9C418.6,29.8,418.4,30.3,417.9,30.6 M420.7,30.9c0,0.5-0.5,0.9-0.9,0.9c-0.7,0-1.1-0.4-1.1-1.2
					c0-0.4,0.4-0.6,0.9-0.9C420.5,29.7,420.7,30.3,420.7,30.9 M420,37.3c0,0-0.3,0-0.5-0.1c-0.9-1.2,0-1.4,0.2-1.9
					C420.7,35.8,420.9,37,420,37.3 M420,34.4c-0.5,0.3-0.9-0.4-0.9-0.9c0.2-0.5,0.5-1.2,0.9-0.9c0.2,0.3,0.5,0.6,0.5,0.9
					C420.5,33.8,420.2,34.1,420,34.4 M418.4,43.9c-0.5,0-0.9-0.4-0.7-0.8c0.2-0.4,0.2-1.4,0.9-1.4C419.8,42,419.3,43.6,418.4,43.9
					 M419.3,46.6c0,0,0.2,0.3,0.2,0.5c-0.2,0-0.5,0-0.7-0.3C418.6,46.3,419.1,46.6,419.3,46.6 M421.4,41.7c0,0.5-0.2,0.8-0.7,0.8
					c-0.9,0-0.9-1.4-0.2-1.7c0.2,0,0.3,0.1,0.5,0.3C421.1,41.3,421.4,41.6,421.4,41.7 M420,40.2c-0.5,0-0.9-0.5-0.9-0.9
					c0.2-0.8,0.5-1.2,1.2-1.4c0.7,0,0.7,0.6,0.7,1.2C420.9,39.7,420.7,39.9,420,40.2 M421.6,29.8c-0.4,0.5-1.1-0.1-1.1-0.9
					c0.2-0.9,0.7-2.6,1.6-2.6c0.5,0-0.1,0.9-0.2,1.4C421.6,28.5,422.3,29.7,421.6,29.8 M418.4,36.1h-0.2l-0.2,0.1
					c-0.1,0-0.1-0.1-0.2-0.1c-0.1-0.3-0.1-0.5-0.1-0.8c0.1,0,0.2-0.3,0.3,0v0.1C418.6,35.4,418.4,35.8,418.4,36.1 M414.9,37.3
					c1.2,0.3,0.6,1.5-0.2,2.2c-0.7,0.4,0.2,1.8-0.7,1.5c-1.1,0-1.4-1.8-0.7-2.3C414,38.4,414.3,37.3,414.9,37.3 M414.3,34.4
					c0.5,0.5,0.5,1.2,0,1.8h-0.4c-0.2-0.1-0.1-0.6-0.2-0.9C413.3,34.9,413.8,34.1,414.3,34.4 M414.7,28c0,0-0.2,0.3-0.5,0.3
					c-0.2-0.3-0.2-0.8-0.2-0.9c0,0,0.2-0.3,0.5-0.3c0,0,0.2,0.3,0.2,0.4V28 M414.7,33.5c-0.2-0.3-0.2-0.5-0.2-0.6
					c0.2-0.3,0.5-0.3,0.7-0.3l0.2,0.4C415.5,33.6,415,33.8,414.7,33.5 M415.4,30.7h-0.5c-0.5-0.1-0.2-0.6,0-1
					c0.2,0.1,0.5,0.4,0.7,0.6C415.6,30.6,415.4,30.7,415.4,30.7 M410.4,45.7c0-0.8,0.5-1.2,1.1-1.4c0.7,0,1.1,0.6,0.9,1.4
					C412.2,46.8,410.6,46.8,410.4,45.7 M408.4,37.5c0.3,0.3,0.1,0.6-0.1,0.6c0,0-0.2,0.3-0.5,0.3c-0.2-0.3-0.2-0.8-0.2-1
					C407.8,37.2,408.2,37.2,408.4,37.5 M408.1,35c0-0.4,0.2-1,0.7-1c0.4,0.1,1.4,0,1.1,0.9C409.7,35.8,408.1,36.2,408.1,35
					 M410.6,44c-0.2,0.3-0.5,0.8-0.7,0.8c-1.1-0.3-1.1-1.9-0.2-1.9C410.4,42.7,411.1,43.5,410.6,44 M409.7,41.6
					c-0.7,0-0.9-0.5-1.1-1.2c0-0.8,0.5-1.4,1.1-1.2c0,0,0.2,0.3,0.2,0.4C410.1,40.4,410.4,41.3,409.7,41.6 M407.4,42.9
					c-0.5-0.4-0.5-0.9,0-1.3c0.2,0,0.2-0.3,0.5-0.3c0.7,0,1.1,1,0.7,1.4C408.3,42.9,407.6,43.1,407.4,42.9 M406.7,50h0.9
					c0.5,0.3,0.2,0.6,0,1.2c-0.2,0.3-0.7,0.9-1.1,0.6C406,51.4,405.9,50,406.7,50 M405.5,46.3c0-0.3,0-0.4,0.2-0.6
					c0.2-0.3,0.5-0.8,0.7-0.8c0.4,0,0.9,0.5,0.9,1c0,0.6-0.5,1.2-0.9,1.3C406,47.2,405.8,46.8,405.5,46.3 M405.5,48.2h0.9
					c0.4,0.1,0.2,0.6,0,1.2c-0.2,0.1-0.5,0.4-0.7,0.1C405.3,49.1,405,48.2,405.5,48.2 M404.8,44.9c-0.7-1.5,0-0.6,0.2-0.9
					c0.2,0.3,0.2,0.5,0.2,0.8C405.3,44.8,405.1,44.9,404.8,44.9 M403.7,49.5c0.5,0.3,1.4,0.5,1.1,1.2c-0.2,0-0.4,0.5-1.1,0.3
					c-0.7-0.3-0.7-0.3-0.7-0.5C403,50,403.2,49.5,403.7,49.5 M402.1,49.5c-1.1-0.6,0-1.3,0.2-2.1c0.5,0.3,0.9,0.5,0.9,1.2
					C403.2,49.4,402.5,49.8,402.1,49.5 M402.8,51.6c0,0,0.2,0.3,0.2,0.5c-0.2,0.5-0.5,0.9-1.2,0.9c-0.2,0-0.7-0.3-0.7-0.4
					C401.2,51.8,402.1,51.4,402.8,51.6 M399.3,45.4c0.4,0,0.9,0.3,1.1,0.5c0.7,0.6,1.2,2.4,0,2.7c-1.1,0.3-1.8-1.2-1.8-2.3
					C398.7,45.9,399.1,45.7,399.3,45.4 M400.3,40.5c-0.5,0.5-1.8,0.8-1.6-0.1c0.2-0.9,0.9-1.7,1.6-1.4
					C400.9,39.5,400.5,40.2,400.3,40.5 M401.6,45.4c-0.2,0.3-0.5,0.5-0.7,0.3c-0.5-0.8-1.2-2.3,0-2.3h0.7
					C402.1,44,401.9,44.8,401.6,45.4 M402.8,35c0-0.4,0.2-0.6,0.7-0.6c0,0,0.2,0.3,0.2,0.5c0,0.1-0.2,0.4-0.2,0.6
					C403.2,35.5,402.8,35.3,402.8,35 M403.2,38.4c0.5,0.1,0.4,0.9,0.2,1.3c-0.5,0.9-1.6,0.3-1.6-0.4
					C401.9,38.4,402.8,38.1,403.2,38.4 M403.2,46.1c-0.9,0.3-1.2-1.2-0.7-1.5c0.2-0.3,0.2-0.5,0.5-0.5
					C403.9,44.3,404.4,45.9,403.2,46.1 M404.2,37.2c0.2-0.8,0.2-1.7,1.1-1.9c0.7-0.3,1.2,0.8,0.9,1.4c-0.2,0.9-0.2,1.8-1.2,1.8
					C404.4,38.8,403.9,37.9,404.2,37.2 M404.4,40.2c0.5,0.3,0.3,0.8,0,1.2c-0.4,0.6-1.4,0.9-1.6,0.3
					C402.5,40.5,403.7,39.9,404.4,40.2 M398,53c0.5,0,0.7,0.3,0.7,0.8c0,0.1-0.1,0.3-0.2,0.4c-0.5,0.5-0.9,0.9-1.4,0.6
					C396.4,54.1,397.3,53.2,398,53 M396.1,48.2c0.2-1.2,1.1-1,1.8-0.5c1.2,0.9,0,2.3-1.1,2.3C395.9,50,396,48.9,396.1,48.2
					 M395,52.3c-0.2-0.8,0.5-1.9,1.6-1.7c0.9,0.3,0.9,1.2,0.4,1.9C396.4,53.8,395,53.2,395,52.3 M395.9,55.8v0.5
					c0,0-0.2,0.2-0.5,0.2c0,0-0.2-0.2-0.2-0.5C395.4,56,395.7,55.8,395.9,55.8 M392.9,55c0.2-0.9,1.6-1.8,2.5-1.3
					c0.9,0.4-0.4,2-1.4,2C393.4,55.8,392.7,55.8,392.9,55 M393.8,56.2c0,0,0.2,0.2,0.2,0.5c0,0.5-0.2,0.9-0.7,0.9
					c-0.2,0-0.7-0.5-0.7-0.7C392.7,56.2,393.4,56,393.8,56.2 M394.1,50.4c0.2,0.3,0.4,0.6,0.2,0.8c-0.5,0.4-0.9,1.2-1.6,0.9
					C391.8,51.4,393.1,50,394.1,50.4 M392.9,46.3c0-0.3,0.2-0.6,0.5-0.6c0.2,0,0.7,0.3,0.7,0.4c0,0.3-0.2,0.5-0.5,0.8
					C393.4,46.8,392.9,46.6,392.9,46.3 M393.1,48c0.5-0.3,0.7-0.5,1.2,0c0.2,0.3,0.2,0.4,0.2,0.6c-0.2,0.8-0.7,1.4-1.4,1.2
					C392.7,49.4,392.4,48.4,393.1,48 M401.2,54.8c0,0-0.2,0.3-0.5,0.3h-0.5c-0.2-0.3-0.2-0.6-0.2-0.9c0.2-0.3,0.7-0.4,0.9-0.3
					C401.2,54.1,401.2,54.6,401.2,54.8 M399.8,52.3h-1.1c-0.5-0.3-0.5-0.9,0-1.2c0.7-0.5,1.6-1.2,2.3-0.8
					C401.9,50.9,400.5,52.3,399.8,52.3 M410.4,53.9c0,0-0.2,0.3-0.5,0.3c-0.5,0-1.1-0.5-0.7-0.9c0.2-0.3,0.7-0.3,0.9-0.3
					C410.4,53.2,410.4,53.8,410.4,53.9 M410.6,50.9c0,0.5-0.5,1.2-0.9,0.9c-1.1-0.4-1.4-2.1-1.1-3.2c0.2-0.6,0.5-1.2,1.1-1.4
					c0.7-0.1,1.4,0.5,1.2,1.2C410.1,49.4,409.9,49.8,410.6,50.9 M420.2,54.8c0.7,1-0.2,1.7,0,2.6c0,0.7,0.6,1.5-0.2,2.1
					c-0.7,0.5-2.1-0.2-2.1-1.4c0.2-0.7,0.7-1.4,0.2-2.1c-1.2-1.2-2.8-0.9-4.1-1.6c-0.9-0.5-0.7-2.1,0.2-1.8c1.6,0.4,3,1.2,4.6,0.6
					c1.1-0.3,0.7-1.8,1.1-2.9c0.2,0,0.7,0.1,0.7,0.4c-0.2,0.8,0,1.7,0.2,2.3C420.9,53.8,419.8,54.1,420.2,54.8 M427.8,50.4
					c-0.5,0-0.2-0.9-0.2-1.5c0-0.3,0.5-0.4,0.7-0.3C429.2,49.1,428.5,50.7,427.8,50.4 M428,47.5c-0.5-0.4-0.8-1.4-0.2-2.1
					c0.2-0.3,0.7-0.5,1.1,0c0.6,0.5,1.4,1.4,0.9,2.1C429.5,48.2,428.5,48,428,47.5 M436.1,54.6c-0.3,0.1-0.8,0.7-1.2,0.9l-0.5-0.2
					c0.3-0.7,0.5-2.1,1.7-1.8C436.5,53.8,436.2,54.4,436.1,54.6 M433.6,52.7c-2.1,0.3-3.6-2.2-2.8-3.8c0.3-0.5,0.5-1.7,1.2-1.7
					c1.2,0.3,0.9,2.2,1.7,2.2c1.4,0,2.6-0.8,3.2,0.4C438.2,51.6,435,52.7,433.6,52.7 M459.2,56c-0.1,0-0.3-0.1-0.4-0.2
					c-0.3-0.2-0.8-0.7-0.5-1.1c0,0,0.3-0.3,0.5-0.3C459.5,54.6,460,55.5,459.2,56 M459.2,53.5c-0.9,0.6-2.3-0.8-1.8-1.7
					c0.5-0.6,1.3-0.1,1.7,0.3C459.7,52.7,459.5,53.2,459.2,53.5 M461.9,59.3c0-20.6-16.8-37.3-37.4-37.3
					c-20.6,0-37.4,16.7-37.4,37.3c0,20.6,16.7,37.4,37.4,37.4C445.1,96.7,461.9,79.9,461.9,59.3"/>
				<path clip-path="url(#SVGID_8_)" fill="#0E2038" d="M424.5,111.1c-28.6,0-51.9-23.3-51.9-51.9c0-28.6,23.3-51.9,51.9-51.9
					c28.7,0,51.9,23.3,51.9,51.9C476.4,87.9,453.2,111.1,424.5,111.1 M424.5,6.8c-28.9,0-52.4,23.6-52.4,52.4
					c0,28.9,23.5,52.4,52.4,52.4c28.9,0,52.5-23.5,52.5-52.4C477,30.4,453.4,6.8,424.5,6.8"/>
				<path clip-path="url(#SVGID_8_)" fill="#0E2038" d="M387.7,82.2c-1,0.4-1.3,0.3-1.9-0.7l-0.9-1.8l2.7-1.5
					c0.4-0.2,0.5-0.1,0.6,0.2l0.9,1.6c0.7,1.3,0.7,1.8-0.3,2.5l0.2,0.3l1.7-1l-3.5-6.4l-0.2,0.1c0.4,0.8,0.4,1.1-0.5,1.6l-5.2,2.8
					c-1,0.5-1.2,0.5-1.8-0.4l-0.2,0.1l1.8,3.4l0.2-0.1c-0.4-0.9-0.4-1.2,0.5-1.7l2.7-1.4l0.9,1.8c0.5,0.9,0.5,1.3-0.4,1.9l0.1,0.3
					l2.8-1.5L387.7,82.2"/>
				<path clip-path="url(#SVGID_8_)" fill="#0E2038" d="M392.6,91.2c-2.3,2-4.1,1.8-5.1,0.6c-1-1.2-1-3,1.3-5
					c2.4-2.1,4.2-1.7,5.1-0.6C394.7,87.2,394.9,89.1,392.6,91.2 M394.2,85.9c-1.5-1.7-4.2-2.3-6.6-0.2c-2.2,1.9-2.2,4.6-0.6,6.5
					c1.6,1.9,4.3,2.2,6.5,0.3C396,90.3,395.7,87.6,394.2,85.9"/>
				<path clip-path="url(#SVGID_8_)" fill="#0E2038" d="M405.2,95.5l0.2-0.2l-2.6-1.8l-0.2,0.2c0.8,0.6,0.9,1,0.1,2.2l-2.1,3.1
					c-0.6,0.9-1,1.2-1.3,1.4c-0.7,0.3-1.6,0.2-2.5-0.4c-2-1.4-0.9-2.9-0.4-3.7l2.5-3.6c0.6-0.8,0.8-0.9,1.7-0.3l0.2-0.2l-3.2-2.2
					l-0.2,0.2c0.8,0.6,0.9,0.9,0.3,1.7l-2.4,3.5c-0.5,0.7-2,2.9,0.8,4.8c2.9,2,4.4-0.1,5-1l2-3C404,95,404.3,95,405.2,95.5"/>
				<path clip-path="url(#SVGID_8_)" fill="#0E2038" d="M414.8,98.9l-3-1.1l-0.1,0.2c0.8,0.4,1.2,0.6,0.6,2.1l-1.6,4.3l0,0l-2.6-8.1
					l-2.2-0.8l-0.1,0.3c0.5,0.2,0.7,0.3,1,1.2l-2.1,5.7c-0.5,1.4-0.9,1.5-1.9,1.2l-0.1,0.2l3,1.1l0.1-0.2c-0.9-0.4-1.1-0.8-0.6-2.1
					l1.9-5l0,0l3,9.2l0.2,0.1l2.5-6.8c0.6-1.5,1-1.4,1.8-1.2L414.8,98.9"/>
				<path clip-path="url(#SVGID_8_)" fill="#0E2038" d="M422.4,104.4c-0.5,4-3.8,3.6-4.7,3.5c-0.7-0.1-0.8-0.2-0.8-0.7l0.8-6.9
					c0-0.3,0.1-0.5,0.7-0.5c1.7,0.2,2.4,0.7,3,1.3C422.3,102.2,422.5,103.3,422.4,104.4 M419,99.4l-3.7-0.4l0,0.3
					c1,0.2,1.2,0.4,1.1,1.4l-0.7,6.1c-0.1,1-0.3,1.2-1.3,1.1l0,0.3l3.9,0.4c4.2,0.5,5.6-2.1,5.8-3.9
					C424.3,101.5,422.3,99.8,419,99.4"/>
				<path clip-path="url(#SVGID_8_)" fill="#0E2038" d="M430.9,108c-2.1,0.2-2.1,0.2-2.1-0.3l-0.4-3.4l2.2-0.2
					c1.2-0.1,1.3,0.1,1.7,1.1l0.3,0l-0.4-3.2l-0.3,0c-0.1,1-0.1,1.3-1.4,1.5l-2.1,0.3l-0.4-3c-0.1-0.5,0.1-0.5,0.4-0.5l1.8-0.2
					c1.5-0.2,1.9,0,2.3,1.2l0.4,0l-0.3-1.9l-7.3,0.9l0,0.3c0.9,0,1.2,0,1.3,1.1l0.7,6.1c0.1,1.1-0.2,1.2-1,1.4l0,0.3l7.4-0.9
					l0.3-2.4l-0.4,0C433.2,107.3,432.5,107.8,430.9,108"/>
				<path clip-path="url(#SVGID_8_)" fill="#0E2038" d="M440,105.9c-0.6,0.2-0.9,0.2-1-0.2l-2.3-6.6c-0.1-0.3-0.3-0.5,0.4-0.7
					c1.7-0.6,2.4-0.5,3.3-0.2c1.2,0.5,1.8,1.4,2.2,2.5C443.9,104.5,440.7,105.6,440,105.9 M437.3,97.7l-3.5,1.3v0.2
					c1-0.3,1.3-0.2,1.5,0.8l2.2,5.8c0.3,0.9,0.1,1.2-0.8,1.6l0.1,0.2l3.6-1.3c4-1.4,4.1-4.3,3.5-6.1
					C442.9,97.3,440.4,96.6,437.3,97.7"/>
				<path clip-path="url(#SVGID_8_)" fill="#0E2038" d="M455.2,97.7c-0.5-0.1-0.8-0.5-1.2-1l-4-5.2l-0.4,0.3c0,1-0.6,1.9-1.5,2.5
					l0.3,0.3c0.9-0.7,1.3-0.9,1.7-0.8c0.3,0.1,0.8,0.7,0.9,1l2.1,2.7c0.4,0.5,0.8,1,0.6,1.5c-0.1,0.4-0.6,0.8-1,1l0.3,0.3l4-3
					l-0.3-0.3C456.2,97.3,455.7,97.7,455.2,97.7"/>
				<path clip-path="url(#SVGID_8_)" fill="#0E2038" d="M460.5,93.4c-0.8,0.9-2.1,0.8-2.7,0.1c-0.6-0.6-0.8-1.6-0.5-2.5
					c1.2-0.4,2.3-1.2,3.2-0.3C461.2,91.4,461.2,92.6,460.5,93.4 M454.6,90.1c-0.6-0.6-0.6-1.6,0-2.3c0.8-0.7,1.7-0.7,2.3-0.1
					c0.5,0.5,0.6,1.2,0.4,2C456.5,90.2,455.2,90.7,454.6,90.1 M457.8,89.6c0.3-0.9,0.4-1.9-0.3-2.6c-0.8-0.8-2.3-0.4-3.2,0.5
					c-1,1.1-1.2,2.7-0.1,3.6c0.8,0.7,1.8,0.5,2.7,0.1c-0.5,1-0.8,2.4,0,3.2c1,1,2.7,0.5,3.7-0.6c0.6-0.6,1-1.4,1-2.2
					c0-0.7-0.3-1.5-0.6-1.9C460.1,89,458.8,89.1,457.8,89.6"/>
				<path clip-path="url(#SVGID_8_)" fill="#0E2038" d="M462.3,85.6c-0.8,1-1.9,0.7-2.7,0.1c-0.8-0.6-1.8-1.7-1-2.8
					c1-1.4,2.7-0.2,3.7,0.3C462.4,84,462.8,84.9,462.3,85.6 M463.3,82.4c-1.4-1-3.7-1.6-5.1,0.3c-1,1.5-0.4,3.4,0.9,4.2
					c1,0.7,2.6,0.7,3.5-0.6c0.5-0.9,0.5-1.8,0.3-2.7c1,0.5,3.2,2.9,2.3,4.2c-0.4,0.5-0.9,0.4-1.3,0.2c-0.4-0.1-0.6-0.2-0.9,0.2
					c-0.3,0.4-0.1,0.8,0.1,1c0.6,0.4,1.8-0.3,2.2-1c0.8-1.1,0.6-2.4,0.1-3.4C465,83.9,464.1,83,463.3,82.4"/>
				<path clip-path="url(#SVGID_8_)" fill="#0E2038" d="M468.4,80.4c-2.2-1.1-3.7-3.5-4.9-5.7l-0.6-0.2l-2.3,4.8l1.8,1.5l0.3-0.3
					c-0.3-0.3-0.6-0.8-0.8-1.3c-0.1-0.7,0.3-1.2,0.5-1.8l0.9-2c0.5,0.9,1.7,2.8,2.3,3.7c0.8,1.3,1.8,2.4,2.7,2.8
					c0.4,0.2,0.8,0.2,0.9-0.3C469.6,80.9,468.9,80.6,468.4,80.4"/>
				<path clip-path="url(#SVGID_8_)" fill="#0E2038" d="M424.5,113.4c-29.9,0-54.2-24.3-54.2-54.2c0-29.9,24.3-54.2,54.2-54.2
					c29.8,0,54.2,24.4,54.2,54.2C478.7,89.1,454.3,113.4,424.5,113.4 M424.5,4c-30.5,0-55.3,24.7-55.3,55.3
					c0,30.5,24.8,55.3,55.3,55.3c30.5,0,55.3-24.8,55.3-55.3C479.8,28.8,455,4,424.5,4"/>
				<path clip-path="url(#SVGID_8_)" fill="#0E2038" d="M402.1,68.6c0.5,0.2,0.9,0,1.2-0.5c0.2-0.9-1.4-1.4-1.8-0.5
					C401.2,68.1,401.6,68.4,402.1,68.6"/>
				<path clip-path="url(#SVGID_8_)" fill="#0E2038" d="M419,77.6c-0.3,0-0.6,0.2-0.6,0.6v4.6c0,0.3,0.3,0.6,0.6,0.6h2.5
					c0.3,0,0.6-0.2,0.6-0.6c0-0.3-0.3-0.6-0.6-0.6h-1.9v-0.6h1.9c0.3,0,0.6-0.2,0.6-0.6c0-0.3-0.3-0.6-0.6-0.6h-1.9v-0.8h1.9
					c0.3,0,0.6-0.2,0.6-0.6c0-0.3-0.3-0.6-0.6-0.6h-1.9v-0.4C419.5,77.8,419.3,77.6,419,77.6"/>
				<path clip-path="url(#SVGID_8_)" fill="#0E2038" d="M430.6,77.6c-0.3,0-0.5,0.2-0.5,0.6c0,0,0,0.1,0,0.4h-1.9
					c-0.3,0-0.6,0.2-0.6,0.6c0,0.3,0.2,0.6,0.6,0.6h1.9v0.8h-1.9c-0.3,0-0.6,0.2-0.6,0.6c0,0.3,0.2,0.6,0.6,0.6h1.9v0.6h-1.9
					c-0.3,0-0.6,0.2-0.6,0.6c0,0.3,0.2,0.6,0.6,0.6h2.4c0.4,0,0.5-0.2,0.5-0.6v-4.6C431.1,77.8,431,77.6,430.6,77.6"/>
				<path clip-path="url(#SVGID_8_)" fill="#0E2038" d="M424.8,83.7h-1.3l1.3-1l1.3,1H424.8 M423.9,80.6l0.9-0.7l0.9,0.7l-0.9,0.7
					L423.9,80.6 M430.6,83.7h-3.5c0.2-0.2,0.1-0.6-0.1-0.8l-1.3-0.9l1.3-0.9c0,0,0,0,0.1-0.1c0,0,0,0,0.1-0.1c0,0,0,0,0,0
					c0,0,0-0.1,0.1-0.1c0,0,0-0.1,0-0.1c0,0,0-0.1,0-0.1c0,0,0-0.1,0-0.1c0,0,0-0.1,0-0.1c0,0,0-0.1-0.1-0.1c0,0,0,0,0,0
					c0,0,0,0-0.1-0.1c0,0,0,0-0.1-0.1l-1.3-0.9l1.3-1c0.2-0.2,0.3-0.5,0.1-0.8c-0.2-0.2-0.5-0.3-0.8-0.1l-1.5,1.1l-1.5-1.1
					c-0.2-0.2-0.6-0.1-0.8,0.1c-0.2,0.2-0.1,0.6,0.1,0.8l1.3,1l-1.3,0.9c0,0,0,0-0.1,0.1c0,0,0,0-0.1,0.1c0,0,0,0,0,0
					c0,0,0,0.1-0.1,0.1c0,0,0,0.1,0,0.1c0,0,0,0.1,0,0.1c0,0,0,0.1,0,0.1c0,0,0,0.1,0,0.1c0,0,0,0.1,0.1,0.1c0,0,0,0,0,0
					c0,0,0,0,0.1,0.1c0,0,0,0,0.1,0.1l1.3,0.9l-1.3,0.9c-0.2,0.2-0.3,0.5-0.1,0.8H419c-0.3,0-0.6,0.2-0.6,0.6V89
					c0,0.3,0.3,0.6,0.6,0.6c0.3,0,0.6-0.3,0.6-0.6c0,0,0-3.3,0-4.2h5.3c0,0,4.4,0,5.3,0V89c0,0.3,0.3,0.6,0.5,0.6
					c0.4,0,0.5-0.3,0.5-0.6v-4.7C431.1,83.9,431,83.7,430.6,83.7"/>
				<path clip-path="url(#SVGID_8_)" fill="#0E2038" d="M424.8,87c0,0-0.9,0-1.5,0v-0.5h1.5c0,0,0.9,0,1.5,0V87H424.8 M428.7,85.3
					c-0.3,0-0.6,0.2-0.6,0.6c0,0,0,1.8,0,2.5h-2.8v-0.4h1.5c0.3,0,0.6-0.2,0.6-0.6v-1.6c0-0.3-0.2-0.6-0.6-0.6h-2.1h-2.1
					c-0.3,0-0.5,0.2-0.5,0.6v1.6c0,0.3,0.2,0.6,0.5,0.6h1.5v0.4h-2.8v-2.5c0-0.3-0.2-0.6-0.6-0.6c-0.3,0-0.6,0.2-0.6,0.6V89
					c0,0.3,0.2,0.6,0.6,0.6h3.4v0.7h-1.5c-0.3,0-0.5,0.2-0.5,0.6c0,0.3,0.2,0.6,0.5,0.6h2.1c0.3,0,0.6-0.2,0.6-0.6v-1.2h3.4
					c0.3,0,0.6-0.3,0.6-0.6v-3.1C429.3,85.6,429.1,85.3,428.7,85.3"/>
				<path clip-path="url(#SVGID_8_)" fill="#0E2038" d="M430.7,73.8h-4.9l-0.6-1.3c0,0,0,0,0,0c0,0-0.1-0.1-0.1-0.1
					c0,0-0.1-0.1-0.1-0.1c0,0,0,0,0,0c-0.1,0-0.1-0.1-0.2-0.1c-0.1,0-0.1,0-0.2,0.1c0,0,0,0,0,0c0,0-0.1,0.1-0.1,0.1
					c0,0-0.1,0.1-0.1,0.1c0,0,0,0,0,0l-0.6,1.3h-4.9c-0.3,0-0.5,0.2-0.5,0.5v2.5c0,0.3,0.2,0.5,0.5,0.5c0.3,0,0.5-0.2,0.5-0.5
					c0,0,0-1.4,0-2h2.8v2c0,0.3,0.2,0.5,0.5,0.5c0.3,0,0.5-0.2,0.5-0.5v-2h1h0.7c0,0,0.3,0,0.7,0h1v2c0,0.3,0.2,0.5,0.5,0.5
					c0.3,0,0.5-0.2,0.5-0.5v-2h2.8v2c0,0.3,0.3,0.5,0.5,0.5c0.3,0,0.5-0.2,0.5-0.5v-2.5C431.2,74,431,73.8,430.7,73.8"/>
				<path clip-path="url(#SVGID_8_)" fill="#0E2038" d="M403.8,74.3c-0.3-0.1-0.6,0-0.7,0.3l-0.7,1.8l-0.7-1.8
					c-0.1-0.3-0.4-0.4-0.7-0.3c-0.2,0.1-0.3,0.3-0.3,0.5c0,0.1,0,0.1,0,0.2c0,0,1.1,2.8,1.2,3v2.1c0,0.3,0.2,0.6,0.6,0.6
					c0.3,0,0.6-0.2,0.6-0.6v-2.1c0.1-0.2,1.2-3,1.2-3c0-0.1,0-0.1,0-0.2C404.1,74.6,404,74.4,403.8,74.3"/>
				<path clip-path="url(#SVGID_8_)" fill="#0E2038" d="M399.9,74.9c0-0.2-0.1-0.3-0.2-0.4c-0.2-0.2-0.6-0.2-0.8,0
					c0,0-0.8,0.8-1.4,1.5v-1.2c0-0.3-0.2-0.6-0.6-0.6c-0.3,0-0.6,0.2-0.6,0.6v5.3c0,0.3,0.2,0.6,0.6,0.6c0.3,0,0.6-0.2,0.6-0.6v-2
					c0.5,0.9,1.3,2.3,1.3,2.3c0.2,0.3,0.5,0.3,0.8,0.2c0.2-0.1,0.3-0.3,0.3-0.5c0-0.1,0-0.2-0.1-0.3c0,0-1.4-2.3-1.7-2.9
					c0.7-0.8,1.6-1.8,1.6-1.8C399.8,75.1,399.9,75,399.9,74.9"/>
				<path clip-path="url(#SVGID_8_)" fill="#0E2038" d="M407,79.2c0,0.2-0.2,0.4-0.4,0.4h-0.3c-0.2,0-0.4-0.2-0.4-0.4v-3.3
					c0-0.2,0.2-0.4,0.4-0.4h0.3c0.2,0,0.4,0.2,0.4,0.4V79.2 M406.5,74.3h-0.3c-0.8,0-1.5,0.7-1.5,1.5v3.3c0,0.8,0.7,1.5,1.5,1.5h0.3
					c0.8,0,1.5-0.7,1.5-1.5v-3.3C408.1,75,407.4,74.3,406.5,74.3"/>
				<path clip-path="url(#SVGID_8_)" fill="#0E2038" d="M414.5,79.2c0,0.2-0.2,0.4-0.4,0.4h-0.3c-0.2,0-0.4-0.2-0.4-0.4v-3.3
					c0-0.2,0.2-0.4,0.4-0.4h0.3c0.2,0,0.4,0.2,0.4,0.4V79.2 M414,74.3h-0.3c-0.8,0-1.5,0.7-1.5,1.5v3.3c0,0.8,0.7,1.5,1.5,1.5h0.3
					c0.8,0,1.5-0.7,1.5-1.5v-3.3C415.6,75,414.9,74.3,414,74.3"/>
				<path clip-path="url(#SVGID_8_)" fill="#0E2038" d="M411.4,74.3h-1.2H409c-0.3,0-0.6,0.2-0.6,0.6c0,0.3,0.2,0.6,0.6,0.6h0.7v4.7
					c0,0.3,0.2,0.6,0.6,0.6c0.3,0,0.6-0.2,0.6-0.6v-4.7h0.7c0.3,0,0.6-0.3,0.6-0.6C412,74.5,411.8,74.3,411.4,74.3"/>
				<path clip-path="url(#SVGID_8_)" fill="#0E2038" d="M452.4,74.3c-0.4,0-0.6,0.2-0.6,0.6c0,0,0,1.6,0,3.2
					c-0.8-1.6-1.8-3.4-1.8-3.4c-0.1-0.2-0.4-0.3-0.6-0.3c-0.3,0.1-0.4,0.3-0.4,0.5v5.3c0,0.3,0.1,0.6,0.5,0.6c0.3,0,0.5-0.2,0.5-0.6
					c0,0,0-1.6,0-3.2c0.9,1.6,1.9,3.4,1.9,3.4c0.1,0.2,0.4,0.3,0.6,0.3c0.3-0.1,0.4-0.3,0.4-0.5v-5.3
					C452.9,74.5,452.7,74.3,452.4,74.3"/>
				<path clip-path="url(#SVGID_8_)" fill="#0E2038" d="M438.2,77.9c0.1-0.3,0.3-0.7,0.3-1c0.1,0.3,0.3,0.6,0.3,1H438.2 M438.9,74.7
					c0-0.2-0.3-0.4-0.5-0.4c-0.3,0-0.4,0.2-0.5,0.4l-1.4,5.3c-0.1,0.3,0.1,0.6,0.4,0.7c0.3,0.1,0.6-0.1,0.6-0.4c0,0,0.1-0.5,0.4-1.3
					h1.2c0.1,0.7,0.3,1.3,0.3,1.3c0.1,0.3,0.4,0.5,0.8,0.4c0.3-0.1,0.4-0.4,0.4-0.7L438.9,74.7"/>
				<path clip-path="url(#SVGID_8_)" fill="#0E2038" d="M443.7,76.1c0,0.2-0.1,0.4-0.4,0.4h-1.2v-1.1h1.2c0.3,0,0.4,0.2,0.4,0.4
					V76.1 M444.8,75.8c0-0.8-0.6-1.5-1.5-1.5h-1.7c-0.3,0-0.5,0.2-0.5,0.6v5.3c0,0.3,0.3,0.6,0.5,0.6c0.3,0,0.5-0.2,0.5-0.6v-2.5
					h1.2c0.9,0,1.5-0.7,1.5-1.5V75.8"/>
				<path clip-path="url(#SVGID_8_)" fill="#0E2038" d="M435.5,74.3c-0.3,0-0.5,0.2-0.5,0.6v4.3c0,0.2-0.1,0.4-0.4,0.4h-0.3
					c-0.3,0-0.5-0.2-0.5-0.4v-0.6c0-0.3-0.3-0.6-0.5-0.6c-0.3,0-0.5,0.2-0.5,0.6v0.6c0,0.8,0.6,1.5,1.5,1.5h0.3
					c0.8,0,1.5-0.7,1.5-1.5v-4.3C436.1,74.5,435.9,74.3,435.5,74.3"/>
				<path clip-path="url(#SVGID_8_)" fill="#0E2038" d="M446.1,77.9c0.1-0.3,0.1-0.7,0.3-1c0.1,0.3,0.1,0.6,0.3,1H446.1 M446.9,74.7
					c0-0.2-0.3-0.4-0.5-0.4c-0.3,0-0.5,0.2-0.5,0.4l-1.4,5.3c-0.1,0.3,0,0.6,0.4,0.7c0.3,0.1,0.5-0.1,0.6-0.4c0,0,0.1-0.5,0.4-1.3h1
					c0.3,0.7,0.4,1.3,0.4,1.3c0.1,0.3,0.4,0.5,0.6,0.4c0.4-0.1,0.5-0.4,0.4-0.7L446.9,74.7"/>
			</g>
		</g>
	</g>
</g>
<g>
	<g>
		<path fill="#1E1D1E" d="M14.3,40.2c0.2,0,0.5,0,0.7,0c7,0,14.1,0,21.1,0c0.6,0,0.8,0.2,0.8,0.8c-0.1,0.8,0,1.6,0,2.4
			c0,0.5-0.2,0.6-0.6,0.6c-5.6,0-11.3,0-16.9,0c-0.6,0-0.7,0.2-0.7,0.7c0,3,0,6,0,9c0,0.5,0.1,0.6,0.6,0.6c5.2,0,10.4,0,15.7,0
			c0.6,0,0.7,0.1,0.7,0.7c-0.1,0.8,0,1.7,0,2.5c0,0.5-0.1,0.6-0.6,0.6c-5.2,0-10.5,0-15.7,0c-0.5,0-0.7,0.1-0.7,0.6
			c0,3.3,0,6.6,0,10c0,0.6,0.2,0.6,0.7,0.6c5.7,0,11.3,0,17,0c0.6,0,0.7,0.1,0.7,0.7c-0.1,0.8,0,1.7,0,2.5c0,0.4-0.1,0.6-0.5,0.5
			c-1.1,0-2.2,0-3.3,0c-6.3,0-12.6,0-18.9,0C14.3,62.1,14.3,51.1,14.3,40.2z"/>
		<path fill="#66B056" d="M322.6,46.6c-0.3,0.7-0.6,1.5-1.2,2.1c-1.3,1.2-3.3,1.5-4.9,0.6c-1.5-0.9-2.4-2.7-2-4.4
			c0.4-1.8,1.9-3.1,3.7-3.2c1.8-0.1,3.4,0.9,4.1,2.6c0.1,0.2,0,0.4,0.2,0.6C322.6,45.4,322.6,46,322.6,46.6z"/>
		<path fill="#66B056" d="M322.6,57.6c-0.1,0.3-0.2,0.6-0.4,0.9c-0.9,1.8-2.8,2.7-4.7,2.2c-1.9-0.5-3.1-2.2-3-4.3
			c0.1-1.9,1.5-3.4,3.5-3.7c1.8-0.3,3.6,0.8,4.3,2.6c0.1,0.2,0,0.4,0.2,0.6C322.6,56.4,322.6,57,322.6,57.6z"/>
		<path fill="#66B056" d="M322.6,68.5c-0.2,0.1-0.2,0.3-0.2,0.4c-0.7,2-2.8,3.1-4.9,2.6c-2.1-0.5-3.3-2.5-3-4.7
			c0.3-2,2.2-3.5,4.3-3.3c1.7,0.1,2.9,1,3.5,2.6c0.1,0.2,0.1,0.5,0.3,0.6C322.6,67.3,322.6,67.9,322.6,68.5z"/>
		<path fill="#64B056" d="M322.6,35.7c-0.4,1.2-1.1,2.2-2.3,2.8c-2.1,1-4.6,0.1-5.5-2c-0.9-2.1,0-4.5,2.1-5.4
			c2.1-0.9,4.6,0.1,5.4,2.3c0.1,0.2,0,0.4,0.3,0.6C322.6,34.5,322.6,35.1,322.6,35.7z"/>
		<path fill="#64B056" d="M322.6,79.4c-0.4,0.8-0.7,1.6-1.4,2.2c-1.4,1.1-3.3,1.3-4.8,0.3c-1.5-1-2.2-2.8-1.7-4.5
			c0.5-1.7,2-2.9,3.7-3c1.9-0.1,3.5,1,4.1,2.8c0.1,0.2,0,0.4,0.2,0.5C322.6,78.2,322.6,78.8,322.6,79.4z"/>
		<path fill="#64B056" d="M278.9,104.3c-1.2-0.4-2.2-1-2.8-2.1c-1.1-2.1-0.3-4.6,1.8-5.6c2.1-1,4.6,0,5.5,2.1
			c0.9,2.2-0.2,4.6-2.4,5.4c-0.2,0.1-0.4,0-0.5,0.2C280,104.3,279.5,104.3,278.9,104.3z"/>
		<path fill="#64B056" d="M280.6,9c0.4,0.2,0.8,0.3,1.1,0.5c1.7,0.9,2.5,2.9,2,4.7c-0.5,1.9-2.2,3.1-4.3,2.9
			c-1.7-0.1-3.3-1.6-3.6-3.4c-0.3-1.9,0.7-3.8,2.6-4.5c0.2-0.1,0.4-0.2,0.6-0.3C279.5,9,280,9,280.6,9z"/>
		<path fill="#1E1D1E" d="M70.6,46c-1.7,4.6-3.4,9.1-5.1,13.7c-1.6,4.3-3.2,8.5-4.8,12.8C60.5,72.9,60.4,73,60,73
			c-0.9,0-1.8,0-2.7,0c-0.4,0-0.6-0.1-0.7-0.5c-2.9-7.8-5.9-15.7-8.8-23.5c-0.4-1-0.7-2-1.2-2.9c0,0.2,0,0.4,0,0.7
			c0,8.5,0,17.1,0,25.6c0,0.6-0.1,0.7-0.7,0.7c-1,0-2,0-3,0c-0.4,0-0.5-0.1-0.5-0.5c0-10.6,0-21.2,0-31.8c0-0.4,0.1-0.5,0.5-0.5
			c1.6,0,3.3,0,4.9,0c0.5,0,0.7,0.1,0.8,0.6c3.3,8.8,6.6,17.5,9.8,26.2c0.1,0.2,0.1,0.3,0.2,0.5c0.8-2,1.5-3.9,2.2-5.8
			c2.6-7,5.3-14,7.9-21c0.1-0.4,0.3-0.5,0.8-0.5c1.6,0,3.2,0,4.8,0c0.6,0,0.7,0.1,0.7,0.7c0,5.7,0,11.5,0,17.2c0,4.7,0,9.5,0,14.2
			c0,0.5-0.1,0.7-0.6,0.6c-1,0-2,0-3,0c-0.5,0-0.6-0.1-0.6-0.6c0-8.6,0-17.1,0-25.7c0-0.2,0-0.5,0-0.7C70.7,46,70.6,46,70.6,46z"/>
		<path fill="#1E1D1E" d="M101.6,55.7c1.6,0.4,2.9,1,3.9,2c1.9,1.9,2.5,4.2,2.3,6.7c-0.5,4.5-3.2,7.4-7.6,8.4
			c-0.8,0.2-1.6,0.2-2.4,0.2c-5,0-10.1,0-15.1,0c-0.5,0-0.7-0.1-0.7-0.7c0-10.5,0-20.9,0-31.4c0-0.6,0.2-0.7,0.7-0.7
			c4.2,0,8.5,0,12.7,0c1.7,0,3.5,0.1,5.2,0.5c3.2,0.7,5.7,3.6,5.8,6.9C106.6,51.3,105.1,54,101.6,55.7z M92.4,69.3
			c1.6,0,3.3,0,4.9,0c0.7,0,1.4-0.1,2.1-0.3c2-0.5,3.3-1.8,3.8-3.8c0.5-2,0.4-4-1.3-5.5c-1.3-1.2-2.8-1.6-4.5-1.6
			c-3.5-0.1-7,0-10.5-0.1c-0.5,0-0.5,0.2-0.5,0.6c0,3.4,0,6.7,0,10.1c0,0.5,0.1,0.6,0.6,0.6C88.8,69.2,90.6,69.3,92.4,69.3z
			 M86.5,49.1c0,1.6,0,3.2,0,4.8c0,0.3,0.1,0.5,0.5,0.5c3.3-0.1,6.6,0.2,9.9-0.1c3.5-0.3,5.1-1.8,5.2-4.9c0.1-2.7-0.9-4.5-3.8-5.1
			c-0.9-0.2-1.7-0.2-2.6-0.2c-2.9,0-5.7,0-8.6,0c-0.5,0-0.6,0.2-0.6,0.6C86.5,46.1,86.5,47.6,86.5,49.1z"/>
		<path fill="#1E1D1E" d="M204.1,55.7c2.6,0.6,4.5,1.9,5.4,4.2c2,4.7,0,11.1-6.1,12.7c-1,0.3-2,0.4-3,0.4c-5.1,0-10.2,0-15.3,0
			c-0.5,0-0.6-0.1-0.6-0.6c0-10.5,0-21,0-31.5c0-0.5,0.1-0.6,0.6-0.6c4.3,0,8.5,0,12.8,0c1.7,0,3.5,0.1,5.2,0.5
			c3,0.7,4.9,2.6,5.6,5.6c0.7,3,0.1,5.8-2.3,8C205.7,54.8,205,55.2,204.1,55.7z M194.8,69.3C194.8,69.3,194.8,69.3,194.8,69.3
			c1.8,0,3.6,0,5.5,0c3-0.1,5-1.9,5.5-4.8c0.5-2.7-0.8-4.9-3.2-5.8c-0.9-0.3-1.8-0.5-2.8-0.5c-3.5,0-7,0-10.5,0
			c-0.4,0-0.5,0.1-0.5,0.5c0,3.4,0,6.8,0,10.2c0,0.5,0.2,0.5,0.6,0.5C191.2,69.2,193,69.3,194.8,69.3z M188.9,49.1
			c0,1.5,0,2.9,0,4.4c0,0.6,0.1,0.9,0.8,0.8c2.6,0,5.2,0,7.8,0c0.9,0,1.8-0.1,2.7-0.2c2.4-0.4,3.7-1.6,4.2-3.6
			c0.2-0.8,0.1-1.6,0-2.4c-0.2-1.8-1.2-3-2.9-3.6c-1.1-0.3-2.2-0.4-3.4-0.4c-2.9,0-5.8,0-8.7,0c-0.4,0-0.5,0.1-0.5,0.5
			C188.9,46,188.9,47.6,188.9,49.1z"/>
		<path fill="#211E21" d="M156.5,56.6c0-5.2,0-10.4,0-15.7c0-0.5,0.1-0.7,0.7-0.7c7.1,0,14.2,0,21.3,0c0.6,0,0.7,0.2,0.6,0.7
			c0,0.8,0,1.6,0,2.4c0,0.5-0.1,0.6-0.6,0.6c-5.6,0-11.2,0-16.8,0c-0.6,0-0.8,0.2-0.8,0.8c0,3,0,6,0,9c0,0.5,0.1,0.6,0.6,0.6
			c5.2,0,10.5,0,15.7,0c0.5,0,0.7,0.1,0.7,0.7c-0.1,0.8-0.1,1.6,0,2.4c0,0.6-0.2,0.7-0.7,0.7c-5.2,0-10.4,0-15.6,0
			c-0.6,0-0.7,0.2-0.7,0.7c0,3.3,0,6.6,0,9.9c0,0.5,0.1,0.6,0.6,0.6c5.7,0,11.3,0,17,0c0.6,0,0.7,0.2,0.7,0.7c0,0.8,0,1.7,0,2.5
			c0,0.4-0.1,0.5-0.5,0.5c-2.5,0-4.9,0-7.4,0c-4.7,0-9.5,0-14.2,0c-0.5,0-0.7-0.1-0.7-0.7C156.6,67.1,156.5,61.8,156.5,56.6z"/>
		<path fill="#1E1D1E" d="M113.4,56.6c0-5.2,0-10.5,0-15.7c0-0.5,0.1-0.7,0.6-0.7c1.1,0,2.2,0,3.3,0c0.3,0,0.5,0.1,0.4,0.4
			c0,0.1,0,0.3,0,0.4c0,9.1,0,18.3,0,27.4c0,0.6,0.1,0.7,0.7,0.7c5.3,0,10.6,0,15.9,0c0.5,0,0.7,0.1,0.7,0.7c0,0.9,0,1.7,0,2.6
			c0,0.4-0.1,0.5-0.5,0.5c-6.9,0-13.8,0-20.7,0c-0.5,0-0.5-0.2-0.5-0.6C113.4,67.2,113.4,61.9,113.4,56.6z"/>
		<path fill="#1E1D1E" d="M220.4,56.6c0,5.2,0,10.5,0,15.7c0,0.5-0.1,0.7-0.6,0.6c-1.1,0-2.1,0-3.2,0c-0.5,0-0.6-0.1-0.6-0.6
			c0-8.6,0-17.2,0-25.7c0-1.9,0-3.9,0-5.8c0-0.5,0.2-0.6,0.7-0.6c1,0,2.1,0,3.1,0c0.5,0,0.6,0.2,0.6,0.7
			C220.4,46.1,220.4,51.4,220.4,56.6z"/>
		<path fill="#E0252E" d="M264.4,67.6c0,2.3-1.8,4.1-4,4.1c-2.3,0-4.1-1.8-4.1-4.1c0-2.2,1.8-4.1,4.1-4.1
			C262.6,63.5,264.4,65.3,264.4,67.6z"/>
		<path fill="#66B056" d="M270,36.2c2.3,0,4.1,1.8,4.1,4c0,2.3-1.8,4.1-4,4.1c-2.2,0-4.2-1.8-4.2-4.1C266,38.1,267.8,36.2,270,36.2z
			"/>
		<path fill="#66B056" d="M308.8,36.2c2.3,0,4.1,1.8,4.1,4.1c0,2.3-1.9,4.1-4.1,4.1c-2.2,0-4.1-1.9-4.1-4.1
			C304.7,38,306.6,36.2,308.8,36.2z"/>
		<path fill="#66B056" d="M308.8,77.1c-2.3,0-4.1-1.8-4.1-4.1c0-2.2,1.9-4.1,4.1-4.1c2.3,0,4.1,1.9,4.1,4.1
			C312.9,75.3,311.1,77.1,308.8,77.1z"/>
		<path fill="#66B056" d="M283.8,56.6c0,2.3-1.8,4.1-4.1,4.1c-2.2,0-4.1-1.8-4-4.1c0-2.3,1.8-4.1,4.1-4.1
			C282,52.6,283.8,54.4,283.8,56.6z"/>
		<path fill="#66B056" d="M270.1,77.1c-2.3,0-4.1-1.8-4.1-4.1c0-2.2,1.9-4.1,4.1-4.1c2.2,0,4.1,1.8,4.1,4.1
			C274.1,75.3,272.3,77.1,270.1,77.1z"/>
		<path fill="#64B056" d="M289.5,66.2c-2.3,0-4.1-1.8-4.1-4c0-2.2,1.8-4.1,4-4.1c2.3,0,4.1,1.8,4.1,4
			C293.5,64.4,291.7,66.2,289.5,66.2z"/>
		<path fill="#64B056" d="M289.5,55.3c-2.3,0-4.1-1.8-4.1-4c0-2.3,1.8-4.1,4.1-4.1c2.3,0,4.1,1.8,4.1,4.1
			C293.5,53.5,291.7,55.3,289.5,55.3z"/>
		<path fill="#66B056" d="M236.9,56.7c0-2.3,1.8-4.1,4-4.1c2.3,0,4.1,1.8,4.1,4.1c0,2.2-1.9,4.1-4.1,4.1
			C238.8,60.8,236.9,58.9,236.9,56.7z"/>
		<path fill="#66B056" d="M250.7,25.3c2.2,0,4.1,1.8,4.1,4.1c0,2.3-1.8,4.1-4.1,4.1c-2.2,0-4-1.8-4-4.1
			C246.6,27.1,248.4,25.3,250.7,25.3z"/>
		<path fill="#66B056" d="M250.7,88c-2.2,0-4.1-1.8-4.1-4.1c0-2.3,1.8-4.1,4.1-4.1c2.3,0,4.1,1.8,4.1,4.1
			C254.7,86.2,252.9,88,250.7,88z"/>
		<path fill="#66B056" d="M289.5,25.3c2.2,0,4.1,1.8,4.1,4.1c0,2.2-1.8,4.1-4.1,4.1c-2.3,0-4.1-1.9-4.1-4.1
			C285.4,27.1,287.2,25.3,289.5,25.3z"/>
		<path fill="#66B056" d="M289.4,88c-2.2,0-4.1-1.9-4-4.1c0-2.2,1.9-4.1,4.1-4c2.3,0,4.1,1.8,4.1,4.1C293.5,86.2,291.7,88,289.4,88z
			"/>
		<path fill="#66B056" d="M289.5,77.1c-2.3,0-4.1-1.8-4.1-4c0-2.3,1.9-4.1,4.1-4.1c2.2,0,4.1,1.8,4.1,4.1
			C293.5,75.2,291.7,77.1,289.5,77.1z"/>
		<path fill="#66B056" d="M250.7,77.1c-2.3,0-4.1-1.8-4.1-4c0-2.3,1.8-4.1,4.1-4.1c2.2,0,4.1,1.9,4.1,4.1
			C254.8,75.3,252.9,77.1,250.7,77.1z"/>
		<path fill="#66B056" d="M303.2,56.7c0,2.3-1.8,4.1-4.1,4.1c-2.3,0-4.1-1.9-4.1-4.2c0-2.2,1.9-4.1,4.1-4
			C301.4,52.6,303.2,54.4,303.2,56.7z"/>
		<path fill="#66B056" d="M308.8,55.3c-2.3,0-4.1-1.8-4.1-4.1c0-2.3,1.8-4.1,4.1-4.1c2.3,0,4.1,1.9,4.1,4.1
			C312.9,53.5,311.1,55.3,308.8,55.3z"/>
		<path fill="#66B056" d="M270.1,58.1c2.3,0,4,1.8,4,4.1c0,2.2-1.8,4.1-4.1,4.1c-2.3,0-4.1-1.8-4.1-4.1
			C266,59.9,267.8,58,270.1,58.1z"/>
		<path fill="#66B056" d="M270,55.3c-2.3,0-4.1-1.8-4.1-4.1c0-2.2,1.8-4.1,4.1-4.1c2.3,0,4.1,1.8,4.1,4.1
			C274.1,53.5,272.3,55.3,270,55.3z"/>
		<path fill="#66B056" d="M308.8,66.2c-2.3,0-4.1-1.8-4.1-4.1c0-2.3,1.8-4.1,4.1-4c2.2,0,4,1.8,4,4
			C312.9,64.4,311.1,66.2,308.8,66.2z"/>
		<path fill="#66B056" d="M236.9,67.6c0-2.3,1.8-4.1,4-4.1c2.3,0,4.1,1.8,4.1,4.1c0,2.2-1.8,4.1-4.1,4.1
			C238.7,71.6,236.9,69.8,236.9,67.6z"/>
		<path fill="#66B056" d="M236.9,45.8c0-2.3,1.8-4.1,4.1-4.1c2.3,0,4.1,1.8,4.1,4.1c0,2.2-1.9,4.1-4.1,4.1
			C238.7,49.8,236.9,48,236.9,45.8z"/>
		<path fill="#66B056" d="M289.5,36.2c2.2,0,4.1,1.8,4.1,4.1c0,2.2-1.9,4.1-4.1,4.1c-2.3,0-4.1-1.9-4.1-4.1
			C285.4,38,287.2,36.2,289.5,36.2z"/>
		<path fill="#66B056" d="M250.7,36.2c2.3,0,4.1,1.8,4.1,4.1c0,2.2-1.9,4.1-4.1,4.1c-2.3,0-4.1-1.8-4.1-4.1
			C246.6,38.1,248.4,36.2,250.7,36.2z"/>
		<path fill="#66B056" d="M308.8,88c-2.2,0-4-1.9-4-4.1c0-2.2,1.9-4,4.1-4c2.2,0,4.1,1.9,4.1,4.1C312.9,86.2,311,88,308.8,88z"/>
		<path fill="#66B056" d="M270.1,25.3c2.2,0,4,1.8,4,4.1c0,2.2-1.8,4-4.1,4c-2.2,0-4.1-1.9-4.1-4.1C266,27.2,267.8,25.3,270.1,25.3z
			"/>
		<path fill="#66B056" d="M308.8,33.5c-2.3,0-4.1-1.8-4.1-4.1c0-2.3,1.8-4.1,4.1-4.1c2.2,0,4.1,1.9,4,4.1
			C312.9,31.7,311.1,33.5,308.8,33.5z"/>
		<path fill="#66B056" d="M274.1,83.9c0,2.3-1.8,4.1-4.1,4.1c-2.2,0-4.1-1.8-4.1-4.1c0-2.3,1.9-4.1,4.1-4.1
			C272.3,79.8,274.1,81.7,274.1,83.9z"/>
		<path fill="#66B056" d="M264.4,45.8c0,2.3-1.8,4.1-4.1,4.1c-2.3,0-4.1-1.8-4-4.2c0-2.2,1.8-4,4-4
			C262.7,41.7,264.4,43.5,264.4,45.8z"/>
		<path fill="#66B056" d="M264.4,56.7c0,2.3-1.8,4.1-4.1,4.1c-2.3,0-4.1-1.8-4.1-4.1c0-2.2,1.8-4,4-4
			C262.6,52.6,264.4,54.4,264.4,56.7z"/>
		<path fill="#66B056" d="M274.1,94.8c0,2.2-1.8,4.1-4.1,4.1c-2.2,0-4.1-1.8-4.1-4.1c0-2.2,1.9-4.1,4.1-4.1
			C272.3,90.7,274.1,92.5,274.1,94.8z"/>
		<path fill="#66B056" d="M250.7,58.1c2.3,0,4.1,1.8,4,4.1c0,2.2-1.9,4-4.1,4c-2.3,0-4.1-1.8-4.1-4.1
			C246.6,59.8,248.4,58,250.7,58.1z"/>
		<path fill="#66B056" d="M274.1,18.5c0,2.3-1.8,4.1-4,4.1c-2.3,0-4.1-1.9-4.1-4.1c0-2.2,1.9-4.1,4.1-4.1
			C272.3,14.4,274.1,16.3,274.1,18.5z"/>
		<path fill="#66B056" d="M250.6,55.3c-2.3,0-4.1-1.8-4-4.1c0-2.3,1.8-4.1,4.1-4c2.3,0,4.1,1.8,4.1,4.1
			C254.8,53.5,252.9,55.3,250.6,55.3z"/>
		<path fill="#66B056" d="M293.5,94.8c0,2.2-1.8,4.1-4.1,4.1c-2.2,0-4.1-1.9-4.1-4.1c0-2.2,1.9-4.1,4.1-4.1
			C291.7,90.7,293.5,92.6,293.5,94.8z"/>
		<path fill="#64B056" d="M283.8,45.8c0,2.3-1.8,4.1-4.1,4c-2.3,0-4-1.8-4-4.1c0-2.3,1.8-4.1,4.1-4.1
			C282,41.7,283.8,43.5,283.8,45.8z"/>
		<path fill="#66B056" d="M289.4,22.6c-2.2,0-4.1-1.9-4.1-4.1c0-2.2,1.9-4.1,4.1-4.1c2.2,0,4.1,1.9,4.1,4.1
			C293.5,20.8,291.7,22.6,289.4,22.6z"/>
		<path fill="#64B056" d="M283.8,78.5c0,2.3-1.8,4.1-4.1,4.1c-2.2,0-4.1-1.8-4.1-4.1c0-2.3,1.8-4.1,4.1-4.1
			C282.1,74.4,283.8,76.2,283.8,78.5z"/>
		<path fill="#64B056" d="M264.4,78.5c0,2.3-1.8,4.1-4.1,4.1c-2.3,0-4.1-1.8-4-4.2c0-2.3,1.8-4,4.1-4
			C262.7,74.4,264.4,76.2,264.4,78.5z"/>
		<path fill="#64B056" d="M275.7,34.9c0-2.2,1.8-4.1,4-4.1c2.2,0,4.1,1.8,4.1,4c0,2.3-1.7,4.1-4,4.1C277.5,39,275.7,37.2,275.7,34.9
			z"/>
		<path fill="#64B056" d="M283.8,67.5c0,2.3-1.8,4.1-4,4.1c-2.3,0-4.1-1.8-4.1-4.1c0-2.3,1.8-4.1,4.1-4.1
			C282,63.5,283.8,65.3,283.8,67.5z"/>
		<path fill="#64B056" d="M264.4,34.9c0,2.3-1.8,4-4.1,4c-2.3,0-4-1.8-4-4.2c0-2.2,1.8-4,4.1-4C262.6,30.8,264.4,32.6,264.4,34.9z"
			/>
		<path fill="#64B056" d="M303.2,34.9c0,2.3-1.8,4.1-4.2,4c-2.2,0-4-1.8-4-4.1c0-2.3,1.9-4.1,4.1-4.1
			C301.5,30.8,303.2,32.6,303.2,34.9z"/>
		<path fill="#64B056" d="M295.1,78.5c0-2.3,1.8-4.1,4-4.1c2.3,0,4.1,1.8,4.1,4c0,2.3-1.8,4.2-4.1,4.1
			C296.9,82.5,295.1,80.7,295.1,78.5z"/>
		<path fill="#66B056" d="M295.1,67.6c0-2.3,1.8-4.1,4.1-4.1c2.3,0,4,1.8,4,4.1c0,2.3-1.8,4.1-4.1,4.1
			C296.9,71.6,295.1,69.9,295.1,67.6z"/>
		<path fill="#66B056" d="M303.2,45.8c0,2.3-1.8,4.1-4.1,4.1c-2.3,0-4.1-1.8-4.1-4.1c0-2.3,1.8-4,4.1-4
			C301.4,41.7,303.2,43.5,303.2,45.8z"/>
		<path fill="#64B056" d="M236.9,78.4c0-2.3,1.8-4.1,4.1-4c2.2,0,4,1.8,4,4.1c0,2.2-1.9,4.1-4.1,4.1
			C238.8,82.6,236.9,80.7,236.9,78.4z"/>
		<path fill="#64B056" d="M240.9,38.9c-2.3,0-4-1.8-4-4.1c0-2.2,1.9-4.1,4.1-4.1c2.2,0,4.1,1.9,4.1,4.1
			C245.1,37.1,243.2,39,240.9,38.9z"/>
		<path fill="#64B056" d="M264.4,24c0,2.3-1.8,4.1-4.1,4c-2.3,0-4-1.8-4-4.1c0-2.3,1.8-4,4.1-4C262.7,19.9,264.4,21.7,264.4,24z"/>
		<path fill="#64B056" d="M264.4,89.3c0,2.3-1.7,4.1-4,4.1c-2.3,0-4.1-1.8-4.1-4.1c0-2.3,1.8-4.1,4.1-4.1
			C262.6,85.3,264.4,87,264.4,89.3z"/>
		<path fill="#64B056" d="M295.1,89.3c0-2.3,1.8-4.1,4.1-4.1c2.3,0,4.1,1.8,4.1,4.1c0,2.3-1.8,4.1-4.1,4
			C296.8,93.4,295.1,91.6,295.1,89.3z"/>
		<path fill="#64B056" d="M279.7,85.3c2.3,0,4.1,1.8,4.1,4.1c0,2.3-1.8,4.1-4.1,4.1c-2.3,0-4.1-1.8-4.1-4.1
			C275.7,87.1,277.5,85.3,279.7,85.3z"/>
		<path fill="#64B056" d="M279.8,19.9c2.3,0,4.1,1.8,4.1,4.1c0,2.3-1.8,4.1-4.1,4.1c-2.3,0-4.1-1.8-4.1-4.1
			C275.7,21.7,277.5,19.9,279.8,19.9z"/>
		<path fill="#64B056" d="M295.1,23.9c0-2.3,1.8-4,4.1-4c2.2,0,4,1.8,4,4c0,2.3-1.8,4.1-4.1,4.1C296.8,28,295.1,26.2,295.1,23.9z"/>
		<path fill="#211E21" d="M144.2,62.1c-2,0-4,0-6,0c-0.6,0-0.7-0.2-0.7-0.7c0-0.9,0-1.8,0-2.6c0-0.3,0.1-0.4,0.4-0.4
			c4.1,0,8.3,0,12.4,0c0.3,0,0.5,0.1,0.4,0.4c0,0.9,0,1.9,0,2.8c0,0.4-0.1,0.5-0.5,0.5C148.2,62.1,146.2,62.1,144.2,62.1z"/>
	</g>
</g>
</svg>
