<?xml version="1.0" encoding="utf-8"?>
<!-- Generator: Adobe Illustrator 18.0.0, SVG Export Plug-In . SVG Version: 6.00 Build 0)  -->
<!DOCTYPE svg PUBLIC "-//W3C//DTD SVG 1.1//EN" "http://www.w3.org/Graphics/SVG/1.1/DTD/svg11.dtd">
<svg version="1.1" id="Layer_1" xmlns="http://www.w3.org/2000/svg" xmlns:xlink="http://www.w3.org/1999/xlink" x="0px" y="0px"
	 viewBox="0 0 560.4 1094.1" enable-background="new 0 0 560.4 1094.1" xml:space="preserve">
<g>
	<path fill="#F5F5F5" d="M427.6,1066.2c0,2.8-2.2,5-5,5H177c-2.8,0-5-2.2-5-5v-92.3c0-2.8,2.2-5,5-5h245.6c2.8,0,5,2.2,5,5V1066.2z"
		/>
</g>
<g opacity="0.3">
	<path fill="#1C75BC" d="M310.1,553.5c0,1.7-1.4,3-3,3h-8.7c-1.6,0-3-1.3-3-3v-85c0-1.7,1.4-3,3-3h8.7c1.6,0,3,1.3,3,3V553.5z"/>
</g>
<g opacity="0.3">
	<path fill="#1C75BC" d="M318.6,819c0,1.7-1.4,3-3,3h-26.2c-1.6,0-3-1.3-3-3v-88.8c0-1.7,1.4-3,3-3h26.2c1.6,0,3,1.3,3,3V819z"/>
</g>
<g opacity="0.3">
	<path fill="#1C75BC" d="M437.4,290.5c0,1.6-1.3,3-3,3h-6c-1.6,0-3-1.4-3-3V116.2c0-1.6,1.4-3,3-3h6c1.7,0,3,1.4,3,3V290.5z"/>
</g>
<g>
	
		<line fill="none" stroke="#333333" stroke-width="2.15" stroke-linecap="round" stroke-linejoin="round" stroke-miterlimit="10" x1="238.4" y1="183.7" x2="210.8" y2="218.9"/>
	
		<line fill="none" stroke="#333333" stroke-width="4.29" stroke-linecap="round" stroke-linejoin="round" stroke-miterlimit="10" x1="165" y1="249.1" x2="204.1" y2="225.4"/>
	
		<line fill="none" stroke="#333333" stroke-width="2.15" stroke-linecap="round" stroke-linejoin="round" stroke-miterlimit="10" x1="236.8" y1="180.5" x2="204.3" y2="145.3"/>
	
		<line fill="none" stroke="#333333" stroke-width="2.15" stroke-linecap="round" stroke-linejoin="round" stroke-miterlimit="10" x1="41.5" y1="147.6" x2="70.7" y2="175"/>
	
		<line fill="none" stroke="#333333" stroke-width="2.15" stroke-linecap="round" stroke-linejoin="round" stroke-miterlimit="10" x1="73.7" y1="180.5" x2="100.4" y2="231.3"/>
	
		<line fill="none" stroke="#333333" stroke-width="2.15" stroke-linecap="round" stroke-linejoin="round" stroke-miterlimit="10" x1="75.3" y1="181.4" x2="122.9" y2="192"/>
	
		<line fill="none" stroke="#333333" stroke-width="2.15" stroke-linecap="round" stroke-linejoin="round" stroke-miterlimit="10" x1="75" y1="172.2" x2="76.3" y2="133.4"/>
	
		<line fill="none" stroke="#333333" stroke-width="2.15" stroke-linecap="round" stroke-linejoin="round" stroke-miterlimit="10" x1="65.4" y1="179.3" x2="32.7" y2="185.3"/>
	
		<line fill="none" stroke="#333333" stroke-width="2.15" stroke-linecap="round" stroke-linejoin="round" stroke-miterlimit="10" x1="158.6" y1="248.6" x2="130.3" y2="198.5"/>
	
		<line fill="none" stroke="#333333" stroke-width="1.07" stroke-linecap="round" stroke-linejoin="round" stroke-miterlimit="10" x1="160.1" y1="255.5" x2="155.3" y2="303.1"/>
	
		<line fill="none" stroke="#333333" stroke-width="2.15" stroke-linecap="round" stroke-linejoin="round" stroke-miterlimit="10" x1="159.5" y1="253.4" x2="124.3" y2="284.9"/>
	
		<line fill="none" stroke="#333333" stroke-width="4.29" stroke-linecap="round" stroke-linejoin="round" stroke-miterlimit="10" x1="160.4" y1="250.9" x2="197.4" y2="282.2"/>
	
		<line fill="none" stroke="#333333" stroke-width="2.15" stroke-linecap="round" stroke-linejoin="round" stroke-miterlimit="10" x1="158.1" y1="252.5" x2="102.9" y2="234.1"/>
	
		<line fill="none" stroke="#333333" stroke-width="2.15" stroke-linecap="round" stroke-linejoin="round" stroke-miterlimit="10" x1="241.6" y1="185.1" x2="259.4" y2="220.3"/>
	
		<line fill="none" stroke="#333333" stroke-width="2.15" stroke-linecap="round" stroke-linejoin="round" stroke-miterlimit="10" x1="240.7" y1="180.3" x2="262.5" y2="143.5"/>
	
		<line fill="none" stroke="#333333" stroke-width="2.15" stroke-linecap="round" stroke-linejoin="round" stroke-miterlimit="10" x1="243.4" y1="184.2" x2="285.3" y2="193.4"/>
</g>
<g>
	<path fill="none" stroke="#333333" stroke-width="7" stroke-linecap="square" stroke-miterlimit="10" d="M216.7,223
		c0,4.9-4,8.9-8.9,8.9c-4.9,0-8.9-4-8.9-8.9c0-4.9,4-8.9,8.9-8.9C212.7,214.1,216.7,218.1,216.7,223z"/>
	<path fill="none" stroke="#333333" stroke-width="7" stroke-linecap="square" stroke-miterlimit="10" d="M48.1,145.6
		c0,4.9-4,8.9-8.9,8.9c-4.9,0-8.9-4-8.9-8.9c0-4.9,4-8.9,8.9-8.9C44.1,136.7,48.1,140.7,48.1,145.6z"/>
	<path fill="none" stroke="#333333" stroke-width="7" stroke-linecap="square" stroke-miterlimit="10" d="M84.5,179.1
		c0,5.7-4.6,10.4-10.4,10.4c-5.7,0-10.4-4.6-10.4-10.4c0-5.7,4.6-10.4,10.4-10.4C79.9,168.7,84.5,173.4,84.5,179.1z"/>
	<path fill="none" stroke="#333333" stroke-width="7" stroke-linecap="square" stroke-miterlimit="10" d="M35.9,185.3
		c0,4.9-4,8.9-8.9,8.9c-4.9,0-8.9-4-8.9-8.9c0-4.9,4-8.9,8.9-8.9C31.9,176.4,35.9,180.4,35.9,185.3z"/>
	<path fill="none" stroke="#333333" stroke-width="7" stroke-linecap="square" stroke-miterlimit="10" d="M85.9,131.9
		c0,4.9-4,8.9-8.9,8.9c-4.9,0-8.9-4-8.9-8.9c0-4.9,4-8.9,8.9-8.9C82,123,85.9,127,85.9,131.9z"/>
	<path fill="none" stroke="#333333" stroke-width="7" stroke-linecap="square" stroke-miterlimit="10" d="M137.7,195.5
		c0,4.9-4,8.9-8.9,8.9c-4.9,0-8.9-4-8.9-8.9c0-4.9,4-8.9,8.9-8.9C133.7,186.6,137.7,190.6,137.7,195.5z"/>
	<path fill="none" stroke="#333333" stroke-width="7" stroke-linecap="square" stroke-miterlimit="10" d="M163.7,304
		c0,4.9-4,8.9-8.9,8.9c-4.9,0-8.9-4-8.9-8.9c0-4.9,4-8.9,8.9-8.9C159.8,295.2,163.7,299.1,163.7,304z"/>
	<path fill="none" stroke="#333333" stroke-width="7" stroke-linecap="square" stroke-miterlimit="10" d="M133.3,285
		c0,4.9-4,8.9-8.9,8.9c-4.9,0-8.9-4-8.9-8.9c0-4.9,4-8.9,8.9-8.9C129.3,276.2,133.3,280.1,133.3,285z"/>
	<path fill="none" stroke="#333333" stroke-width="7" stroke-linecap="square" stroke-miterlimit="10" d="M171,252.4
		c0,5.7-4.6,10.4-10.4,10.4c-5.7,0-10.4-4.6-10.4-10.4c0-5.7,4.6-10.4,10.4-10.4C166.4,242,171,246.7,171,252.4z"/>
	<path fill="none" stroke="#333333" stroke-width="7" stroke-linecap="square" stroke-miterlimit="10" d="M110.7,232.5
		c0,4.9-4,8.9-8.9,8.9c-4.9,0-8.9-4-8.9-8.9s4-8.9,8.9-8.9C106.7,223.6,110.7,227.5,110.7,232.5z"/>
	<path fill="none" stroke="#333333" stroke-width="7" stroke-linecap="square" stroke-miterlimit="10" d="M209.6,285.2
		c0,4.9-4,8.9-8.9,8.9c-4.9,0-8.9-4-8.9-8.9c0-4.9,4-8.9,8.9-8.9C205.6,276.3,209.6,280.2,209.6,285.2z"/>
	<path fill="none" stroke="#333333" stroke-width="7" stroke-linecap="square" stroke-miterlimit="10" d="M250.7,182.8
		c0,5.7-4.6,10.4-10.4,10.4c-5.7,0-10.4-4.6-10.4-10.4c0-5.7,4.6-10.4,10.4-10.4C246,172.4,250.7,177.1,250.7,182.8z"/>
	<path fill="none" stroke="#333333" stroke-width="7" stroke-linecap="square" stroke-miterlimit="10" d="M269.6,222.8
		c0,4.9-4,8.9-8.9,8.9c-4.9,0-8.9-4-8.9-8.9s4-8.9,8.9-8.9C265.6,213.9,269.6,217.9,269.6,222.8z"/>
	<path fill="none" stroke="#333333" stroke-width="7" stroke-linecap="square" stroke-miterlimit="10" d="M295.7,193.5
		c0,4.9-4,8.9-8.9,8.9c-4.9,0-8.9-4-8.9-8.9c0-4.9,4-8.9,8.9-8.9C291.8,184.6,295.7,188.6,295.7,193.5z"/>
	<path fill="none" stroke="#333333" stroke-width="7" stroke-linecap="square" stroke-miterlimit="10" d="M213.2,144.2
		c0,4.9-4,8.9-8.9,8.9c-4.9,0-8.9-4-8.9-8.9c0-4.9,4-8.9,8.9-8.9C209.2,135.3,213.2,139.3,213.2,144.2z"/>
	<path fill="none" stroke="#333333" stroke-width="7" stroke-linecap="square" stroke-miterlimit="10" d="M271.2,142.7
		c0,4.9-4,8.9-8.9,8.9s-8.9-4-8.9-8.9s4-8.9,8.9-8.9S271.2,137.8,271.2,142.7z"/>
</g>
<title></title>
<desc>
	Creator: FreeHEP Graphics2D Driver Producer: org.freehep.graphicsio.svg.SVGGraphics2D Revision: 12753  Source:  Date: Sunday, June 15, 2014 3:44:52 PM BST
	</desc>
<text transform="matrix(1 0 0 1 365.2212 130.8418)"><tspan x="0" y="0" fill="#333333" font-family="'Consolas'" font-size="22">KSPAP</tspan><tspan x="60.5" y="0" fill="#333333" font-family="'Consolas-Bold'" font-size="22">S</tspan><tspan x="72.6" y="0" fill="#333333" font-family="'Consolas'" font-size="22">PTREI</tspan><tspan x="0" y="26.4" fill="#333333" font-family="'Consolas'" font-size="22">LTPKS</tspan><tspan x="60.5" y="26.4" fill="#333333" font-family="'Consolas-Bold'" font-size="22">T</tspan><tspan x="72.6" y="26.4" fill="#333333" font-family="'Consolas'" font-size="22">PVKTL</tspan><tspan x="0" y="52.8" fill="#333333" font-family="'Consolas'" font-size="22">VSPAP</tspan><tspan x="60.5" y="52.8" fill="#333333" font-family="'Consolas-Bold'" font-size="22">S</tspan><tspan x="72.6" y="52.8" fill="#333333" font-family="'Consolas'" font-size="22">PTRGI</tspan><tspan x="0" y="79.2" fill="#333333" font-family="'Consolas'" font-size="22">STPRN</tspan><tspan x="60.5" y="79.2" fill="#333333" font-family="'Consolas-Bold'" font-size="22">T</tspan><tspan x="72.6" y="79.2" fill="#333333" font-family="'Consolas'" font-size="22">VSQSI</tspan><tspan x="0" y="105.6" fill="#333333" font-family="'Consolas'" font-size="22">SPNAG</tspan><tspan x="60.5" y="105.6" fill="#333333" font-family="'Consolas-Bold'" font-size="22">S</tspan><tspan x="72.6" y="105.6" fill="#333333" font-family="'Consolas'" font-size="22">VEQTP</tspan><tspan x="0" y="132" fill="#333333" font-family="'Consolas'" font-size="22">NGSPR</tspan><tspan x="60.5" y="132" fill="#333333" font-family="'Consolas-Bold'" font-size="22">T</tspan><tspan x="72.6" y="132" fill="#333333" font-family="'Consolas'" font-size="22">PRRGQ</tspan><tspan x="0" y="158.4" fill="#333333" font-family="'Consolas'" font-size="22">ASVPG</tspan><tspan x="60.5" y="158.4" fill="#333333" font-family="'Consolas-Bold'" font-size="22">S</tspan><tspan x="72.6" y="158.4" fill="#333333" font-family="'Consolas'" font-size="22">VPGVL</tspan><tspan x="0" y="184.8" fill="#333333" font-family="'Consolas'" font-size="22">    ...</tspan></text>
<text transform="matrix(1 0 0 1 128.3027 67.6958)"><tspan x="0" y="0" fill="#333333" font-family="'Helvetica-Bold'" font-size="20">STRING</tspan><tspan x="-55.6" y="24" fill="#333333" font-family="'Helvetica-Bold'" font-size="20">Functional partners</tspan></text>
<text transform="matrix(1 0 0 1 341.4287 67.6958)"><tspan x="0" y="0" fill="#333333" font-family="'Helvetica-Bold'" font-size="20">Mass spectrometry</tspan><tspan x="-16.1" y="24" fill="#333333" font-family="'Helvetica-Bold'" font-size="20">Phosphorylation sites </tspan></text>
<g>
	<g>
		
			<line fill="none" stroke="#333333" stroke-width="9" stroke-linecap="square" stroke-miterlimit="10" x1="302.9" y1="334.6" x2="302.9" y2="433"/>
		<g>
			<polygon fill="#333333" points="287.2,428.4 302.9,455.6 318.6,428.4 			"/>
		</g>
	</g>
</g>
<g>
	<text transform="matrix(1 0 0 1 202.437 750.1118)"><tspan x="0" y="0" fill="#333333" font-family="'Consolas'" font-size="26">.....</tspan><tspan x="71.5" y="0" fill="#333333" font-family="'Consolas-Bold'" font-size="26">[ST]</tspan><tspan x="128.7" y="0" fill="#333333" font-family="'Consolas'" font-size="26">PKK..</tspan><tspan x="0" y="31.2" fill="#333333" font-family="'Consolas'" font-size="26">.....</tspan><tspan x="71.5" y="31.2" fill="#333333" font-family="'Consolas-Bold'" font-size="26">[ST]</tspan><tspan x="128.7" y="31.2" fill="#333333" font-family="'Consolas'" font-size="26">P.K..</tspan><tspan x="0" y="62.4" fill="#333333" font-family="'Consolas'" font-size="26">P....</tspan><tspan x="71.5" y="62.4" fill="#333333" font-family="'Consolas-Bold'" font-size="26">[ST]</tspan><tspan x="128.7" y="62.4" fill="#333333" font-family="'Consolas'" font-size="26">P.K..</tspan></text>
</g>
<text transform="matrix(1 0 0 1 223.877 487.8403)"><tspan x="0" y="0" fill="#333333" font-family="'Consolas'" font-size="26">LTPKS</tspan><tspan x="71.5" y="0" fill="#333333" font-family="'Consolas-Bold'" font-size="26">T</tspan><tspan x="85.8" y="0" fill="#333333" font-family="'Consolas'" font-size="26">PVKTL</tspan><tspan x="0" y="31.2" fill="#333333" font-family="'Consolas'" font-size="26">VSPAP</tspan><tspan x="71.5" y="31.2" fill="#333333" font-family="'Consolas-Bold'" font-size="26">S</tspan><tspan x="85.8" y="31.2" fill="#333333" font-family="'Consolas'" font-size="26">PTRGI</tspan><tspan x="0" y="62.4" fill="#333333" font-family="'Consolas'" font-size="26">NGSPR</tspan><tspan x="71.5" y="62.4" fill="#333333" font-family="'Consolas-Bold'" font-size="26">T</tspan><tspan x="85.8" y="62.4" fill="#333333" font-family="'Consolas'" font-size="26">PRRGQ</tspan><tspan x="0" y="93.6" fill="#333333" font-family="'Consolas'" font-size="26">    ...</tspan></text>
<g>
	<g>
		
			<line fill="none" stroke="#333333" stroke-width="9" stroke-linecap="square" stroke-miterlimit="10" x1="302.9" y1="603.6" x2="302.9" y2="686.9"/>
		<g>
			<polygon fill="#333333" points="287.2,682.3 302.9,709.5 318.6,682.3 			"/>
		</g>
	</g>
</g>
<g>
	<g>
		
			<line fill="none" stroke="#333333" stroke-width="9" stroke-linecap="square" stroke-miterlimit="10" x1="299.9" y1="839.6" x2="299.9" y2="936.5"/>
		<g>
			<polygon fill="#333333" points="284.2,931.9 299.9,959.1 315.6,931.9 			"/>
		</g>
	</g>
</g>
<line fill="none" stroke="#333333" stroke-width="7" stroke-linecap="square" stroke-miterlimit="10" x1="277.1" y1="308.6" x2="302.7" y2="334.1"/>
<g>
	
		<line fill="none" stroke="#333333" stroke-width="7" stroke-linecap="square" stroke-miterlimit="10" x1="329.2" y1="308.8" x2="303.6" y2="334.4"/>
</g>
<g>
	<path fill="#1C75BC" d="M84.5,179.1c0,5.7-4.6,10.4-10.4,10.4c-5.7,0-10.4-4.6-10.4-10.4c0-5.7,4.6-10.4,10.4-10.4
		C79.9,168.7,84.5,173.4,84.5,179.1z"/>
	<path fill="#1C75BC" d="M171,252.4c0,5.7-4.6,10.4-10.4,10.4c-5.7,0-10.4-4.6-10.4-10.4c0-5.7,4.6-10.4,10.4-10.4
		C166.4,242,171,246.7,171,252.4z"/>
	<path fill="#1C75BC" d="M250.7,182.8c0,5.7-4.6,10.4-10.4,10.4c-5.7,0-10.4-4.6-10.4-10.4c0-5.7,4.6-10.4,10.4-10.4
		C246,172.4,250.7,177.1,250.7,182.8z"/>
</g>
<g>
	<path fill="#EEEEEE" d="M216.7,223c0,4.9-4,8.9-8.9,8.9c-4.9,0-8.9-4-8.9-8.9c0-4.9,4-8.9,8.9-8.9
		C212.7,214.1,216.7,218.1,216.7,223z"/>
	<path fill="#EEEEEE" d="M48.1,145.6c0,4.9-4,8.9-8.9,8.9c-4.9,0-8.9-4-8.9-8.9c0-4.9,4-8.9,8.9-8.9
		C44.1,136.7,48.1,140.7,48.1,145.6z"/>
	<path fill="#EEEEEE" d="M35.9,185.3c0,4.9-4,8.9-8.9,8.9c-4.9,0-8.9-4-8.9-8.9c0-4.9,4-8.9,8.9-8.9
		C31.9,176.4,35.9,180.4,35.9,185.3z"/>
	<path fill="#EEEEEE" d="M85.9,131.9c0,4.9-4,8.9-8.9,8.9c-4.9,0-8.9-4-8.9-8.9c0-4.9,4-8.9,8.9-8.9C82,123,85.9,127,85.9,131.9z"/>
	<path fill="#EEEEEE" d="M137.7,195.5c0,4.9-4,8.9-8.9,8.9c-4.9,0-8.9-4-8.9-8.9c0-4.9,4-8.9,8.9-8.9
		C133.7,186.6,137.7,190.6,137.7,195.5z"/>
	<path fill="#EEEEEE" d="M163.7,304c0,4.9-4,8.9-8.9,8.9c-4.9,0-8.9-4-8.9-8.9c0-4.9,4-8.9,8.9-8.9
		C159.8,295.2,163.7,299.1,163.7,304z"/>
	<path fill="#EEEEEE" d="M133.3,285c0,4.9-4,8.9-8.9,8.9c-4.9,0-8.9-4-8.9-8.9c0-4.9,4-8.9,8.9-8.9
		C129.3,276.2,133.3,280.1,133.3,285z"/>
	<path fill="#EEEEEE" d="M110.7,232.5c0,4.9-4,8.9-8.9,8.9c-4.9,0-8.9-4-8.9-8.9s4-8.9,8.9-8.9C106.7,223.6,110.7,227.5,110.7,232.5
		z"/>
	<path fill="#EEEEEE" d="M209.6,285.2c0,4.9-4,8.9-8.9,8.9c-4.9,0-8.9-4-8.9-8.9c0-4.9,4-8.9,8.9-8.9
		C205.6,276.3,209.6,280.2,209.6,285.2z"/>
	<path fill="#EEEEEE" d="M269.6,222.8c0,4.9-4,8.9-8.9,8.9c-4.9,0-8.9-4-8.9-8.9s4-8.9,8.9-8.9C265.6,213.9,269.6,217.9,269.6,222.8
		z"/>
	<path fill="#EEEEEE" d="M295.7,193.5c0,4.9-4,8.9-8.9,8.9c-4.9,0-8.9-4-8.9-8.9c0-4.9,4-8.9,8.9-8.9
		C291.8,184.6,295.7,188.6,295.7,193.5z"/>
	<path fill="#EEEEEE" d="M213.2,144.2c0,4.9-4,8.9-8.9,8.9c-4.9,0-8.9-4-8.9-8.9c0-4.9,4-8.9,8.9-8.9
		C209.2,135.3,213.2,139.3,213.2,144.2z"/>
	<path fill="#EEEEEE" d="M271.2,142.7c0,4.9-4,8.9-8.9,8.9s-8.9-4-8.9-8.9s4-8.9,8.9-8.9S271.2,137.8,271.2,142.7z"/>
</g>
<g>
	<text transform="matrix(21.56 0 0 1 179.8809 1061.4746)" fill="#2E2E2E" font-family="'Helvetica-Bold'" font-size="1.4997">V</text>
	<text transform="matrix(22.4998 0 0 1 177.9014 1059.6953)" fill="#1453C5" font-family="'Helvetica-Bold'" font-size="1.4997">R</text>
	<text transform="matrix(22.6557 0 0 1 178.3027 1057.9131)" fill="#750F91" font-family="'Helvetica-Bold'" font-size="1.4997">N</text>
	<text transform="matrix(22.7972 0 0 1 178.2871 1056.1348)" fill="#1453C5" font-family="'Helvetica-Bold'" font-size="1.4997">H</text>
	<text transform="matrix(21.1558 0 0 1 179.3975 1054.3223)" fill="#12864B" font-family="'Helvetica-Bold'" font-size="1.4635">G</text>
	<text transform="matrix(26.2294 0 0 1 177.6396 1052.5762)" fill="#2E2E2E" font-family="'Helvetica-Bold'" font-size="1.5628">F</text>
	<text transform="matrix(10.3768 0 0 1 177.2646 1050.7949)" fill="#2E2E2E" font-family="'Helvetica-Bold'" font-size="4.0259">L</text>
	<text transform="matrix(3.5993 0 0 1 179.4375 1046.8057)" fill="#750F91" font-family="'Helvetica-Bold'" font-size="8.0243">Q</text>
	<text transform="matrix(2.5122 0 0 1 177.707 1038.2686)" fill="#C5144B" font-family="'Helvetica-Bold'" font-size="15.0162">E</text>
	<text transform="matrix(3.1644 0 0 1 179.5986 1025.6445)" fill="#12864B" font-family="'Helvetica-Bold'" font-size="10.673">S</text>
	<text transform="matrix(2.3194 0 0 1 178.3184 1016.9961)" fill="#1453C5" font-family="'Helvetica-Bold'" font-size="13.7267">K</text>
	<text transform="matrix(1 0 0 1.173 177.8838 1006.3203)" fill="#2E2E2E" font-family="'Helvetica-Bold'" font-size="36.7906">P</text>
	<text transform="matrix(21.56 0 0 1 201.5752 1061.4746)" fill="#12864B" font-family="'Helvetica-Bold'" font-size="1.4997">Y</text>
	<text transform="matrix(20.8275 0 0 1 201.2773 1059.623)" fill="#750F91" font-family="'Helvetica-Bold'" font-size="1.3567">Q</text>
	<text transform="matrix(18.9232 0 0 1 200.5449 1057.916)" fill="#2E2E2E" font-family="'Helvetica-Bold'" font-size="1.4997">M</text>
	<text transform="matrix(22.7972 0 0 1 200.083 1056.1348)" fill="#1453C5" font-family="'Helvetica-Bold'" font-size="1.4997">H</text>
	<text transform="matrix(22.2359 0 0 1 199.8301 1054.3564)" fill="#C5144B" font-family="'Helvetica-Bold'" font-size="1.4997">D</text>
	<text transform="matrix(8.3131 0 0 1 201.6523 1052.5771)" fill="#2E2E2E" font-family="'Helvetica-Bold'" font-size="4.0259">V</text>
	<text transform="matrix(8.6754 0 0 1 199.6152 1049.0195)" fill="#1453C5" font-family="'Helvetica-Bold'" font-size="4.0259">R</text>
	<text transform="matrix(8.7334 0 0 1 200.0303 1045.4609)" fill="#750F91" font-family="'Helvetica-Bold'" font-size="4.0259">N</text>
	<text transform="matrix(10.6823 0 0 1 196.2744 1041.9043)" fill="#2E2E2E" font-family="'Helvetica-Bold'" font-size="5.1297">I</text>
	<text transform="matrix(8.1115 0 0 1 201.1426 1038.2578)" fill="#12864B" font-family="'Helvetica-Bold'" font-size="3.8679">G</text>
	<text transform="matrix(9.5039 0 0 1 199.3877 1034.7891)" fill="#C5144B" font-family="'Helvetica-Bold'" font-size="4.0259">E</text>
	<text transform="matrix(8.467 0 0 1 201.0156 1031.1387)" fill="#12864B" font-family="'Helvetica-Bold'" font-size="3.8679">C</text>
	<text transform="matrix(5.4693 0 0 1 201.9834 1027.6699)" fill="#12864B" font-family="'Helvetica-Bold'" font-size="6.4541">T</text>
	<text transform="matrix(6.4007 0 0 1 199.2051 1022.334)" fill="#2E2E2E" font-family="'Helvetica-Bold'" font-size="6.4541">L</text>
	<text transform="matrix(4.1593 0 0 1 199.6777 1016.9961)" fill="#2E2E2E" font-family="'Helvetica-Bold'" font-size="8.876">P</text>
	<text transform="matrix(2.3194 0 0 1 200.1113 1009.8799)" fill="#1453C5" font-family="'Helvetica-Bold'" font-size="13.7267">K</text>
	<text transform="matrix(2.2088 0 0 1 201.3838 998.8516)" fill="#12864B" font-family="'Helvetica-Bold'" font-size="15.4906">S</text>
	<text transform="matrix(1.8698 0 0 1 201.6855 986.752)" fill="#2E2E2E" font-family="'Helvetica-Bold'" font-size="16.1555">A</text>
	<text transform="matrix(20.8275 0 0 1 223.0713 1061.4014)" fill="#750F91" font-family="'Helvetica-Bold'" font-size="1.3567">Q</text>
	<text transform="matrix(22.6557 0 0 1 221.8887 1059.6924)" fill="#750F91" font-family="'Helvetica-Bold'" font-size="1.4997">N</text>
	<text transform="matrix(8.3131 0 0 1 223.3418 1057.9131)" fill="#12864B" font-family="'Helvetica-Bold'" font-size="4.0259">Y</text>
	<text transform="matrix(9.0268 0 0 1 223.1338 1054.2666)" fill="#12864B" font-family="'Helvetica-Bold'" font-size="3.8679">S</text>
	<text transform="matrix(8.6754 0 0 1 221.4102 1050.7969)" fill="#1453C5" font-family="'Helvetica-Bold'" font-size="4.0259">R</text>
	<text transform="matrix(10.3768 0 0 1 220.8535 1047.2402)" fill="#2E2E2E" font-family="'Helvetica-Bold'" font-size="4.0259">L</text>
	<text transform="matrix(8.0527 0 0 1 221.8135 1043.6807)" fill="#1453C5" font-family="'Helvetica-Bold'" font-size="4.0259">K</text>
	<text transform="matrix(10.6823 0 0 1 218.0684 1040.125)" fill="#2E2E2E" font-family="'Helvetica-Bold'" font-size="5.1297">I</text>
	<text transform="matrix(9.5039 0 0 1 221.1807 1036.5654)" fill="#C5144B" font-family="'Helvetica-Bold'" font-size="4.0259">E</text>
	<text transform="matrix(5.0123 0 0 1 222.9697 1032.8652)" fill="#12864B" font-family="'Helvetica-Bold'" font-size="6.0712">G</text>
	<text transform="matrix(6.2411 0 0 1 221.3213 1027.6699)" fill="#2E2E2E" font-family="'Helvetica-Bold'" font-size="6.4541">F</text>
	<text transform="matrix(4.7186 0 0 1 223.4854 1022.334)" fill="#2E2E2E" font-family="'Helvetica-Bold'" font-size="6.4541">A</text>
	<text transform="matrix(4.1593 0 0 1 221.4717 1016.9961)" fill="#2E2E2E" font-family="'Helvetica-Bold'" font-size="8.876">P</text>
	<text transform="matrix(2.3967 0 0 1 223.4746 1009.8799)" fill="#2E2E2E" font-family="'Helvetica-Bold'" font-size="13.7267">V</text>
	<text transform="matrix(1.0547 0 0 1 223.7773 999.2051)" fill="#12864B" font-family="'Helvetica-Bold'" font-size="33.3371">T</text>
	<text transform="matrix(23.0017 0 0 1 245.5654 1061.4727)" fill="#12864B" font-family="'Helvetica-Bold'" font-size="1.4997">T</text>
	<text transform="matrix(20.8275 0 0 1 244.8643 1059.623)" fill="#750F91" font-family="'Helvetica-Bold'" font-size="1.3567">Q</text>
	<text transform="matrix(26.9069 0 0 1 242.6914 1057.9131)" fill="#2E2E2E" font-family="'Helvetica-Bold'" font-size="1.5628">L</text>
	<text transform="matrix(26.2294 0 0 1 243.0254 1056.1328)" fill="#2E2E2E" font-family="'Helvetica-Bold'" font-size="1.5628">F</text>
	<text transform="matrix(9.0268 0 0 1 244.9307 1054.2666)" fill="#12864B" font-family="'Helvetica-Bold'" font-size="3.8679">S</text>
	<text transform="matrix(8.6754 0 0 1 243.207 1050.7969)" fill="#1453C5" font-family="'Helvetica-Bold'" font-size="4.0259">R</text>
	<text transform="matrix(8.7334 0 0 1 243.6221 1047.2402)" fill="#750F91" font-family="'Helvetica-Bold'" font-size="4.0259">N</text>
	<text transform="matrix(5.1277 0 0 1 245.1797 1043.6816)" fill="#12864B" font-family="'Helvetica-Bold'" font-size="6.4541">Y</text>
	<text transform="matrix(5.0123 0 0 1 244.7646 1038.2021)" fill="#12864B" font-family="'Helvetica-Bold'" font-size="6.0712">G</text>
	<text transform="matrix(5.8608 0 0 1 243.1055 1033.0068)" fill="#C5144B" font-family="'Helvetica-Bold'" font-size="6.4541">E</text>
	<text transform="matrix(5.2884 0 0 1 243.4629 1027.6699)" fill="#C5144B" font-family="'Helvetica-Bold'" font-size="6.4541">D</text>
	<text transform="matrix(3.7194 0 0 1 245.2686 1022.334)" fill="#2E2E2E" font-family="'Helvetica-Bold'" font-size="8.876">V</text>
	<text transform="matrix(1.8936 0 0 1 245.2734 1014.2383)" fill="#2E2E2E" font-family="'Helvetica-Bold'" font-size="16.0393">A</text>
	<text transform="matrix(2.2722 0 0 1 243.2559 1000.9824)" fill="#2E2E2E" font-family="'Helvetica-Bold'" font-size="16.1555">P</text>
	<text transform="matrix(1.7096 0 0 1 243.7197 988.5293)" fill="#1453C5" font-family="'Helvetica-Bold'" font-size="18.5775">K</text>
	<text transform="matrix(14.614 0 0 1 267.5635 1061.4717)" fill="#2E2E2E" font-family="'Helvetica-Bold'" font-size="1.4997">W</text>
	<text transform="matrix(26.9069 0 0 1 264.4873 1059.6924)" fill="#2E2E2E" font-family="'Helvetica-Bold'" font-size="1.5628">L</text>
	<text transform="matrix(27.7376 0 0 1 261.6758 1057.916)" fill="#2E2E2E" font-family="'Helvetica-Bold'" font-size="1.9678">I</text>
	<text transform="matrix(22.2359 0 0 1 265.2129 1056.1348)" fill="#C5144B" font-family="'Helvetica-Bold'" font-size="1.4997">D</text>
	<text transform="matrix(9.2962 0 0 1 264.9473 1054.3564)" fill="#2E2E2E" font-family="'Helvetica-Bold'" font-size="4.0259">P</text>
	<text transform="matrix(8.7334 0 0 1 265.4121 1050.7988)" fill="#750F91" font-family="'Helvetica-Bold'" font-size="4.0259">N</text>
	<text transform="matrix(8.1115 0 0 1 266.5244 1047.1484)" fill="#12864B" font-family="'Helvetica-Bold'" font-size="3.8679">G</text>
	<text transform="matrix(5.1277 0 0 1 267.0674 1043.6816)" fill="#2E2E2E" font-family="'Helvetica-Bold'" font-size="6.4541">V</text>
	<text transform="matrix(5.4693 0 0 1 267.3662 1038.3457)" fill="#12864B" font-family="'Helvetica-Bold'" font-size="6.4541">T</text>
	<text transform="matrix(5.578 0 0 1 266.7559 1032.8652)" fill="#12864B" font-family="'Helvetica-Bold'" font-size="6.0712">S</text>
	<text transform="matrix(5.4219 0 0 1 265.5039 1027.6699)" fill="#1453C5" font-family="'Helvetica-Bold'" font-size="6.4541">H</text>
	<text transform="matrix(3.8805 0 0 1 265.1104 1022.334)" fill="#1453C5" font-family="'Helvetica-Bold'" font-size="8.876">R</text>
	<text transform="matrix(3.5993 0 0 1 266.6143 1014.7832)" fill="#750F91" font-family="'Helvetica-Bold'" font-size="8.0243">Q</text>
	<text transform="matrix(4.2501 0 0 1 264.8838 1008.0996)" fill="#C5144B" font-family="'Helvetica-Bold'" font-size="8.876">E</text>
	<text transform="matrix(1.8698 0 0 1 267.0674 1000.9824)" fill="#2E2E2E" font-family="'Helvetica-Bold'" font-size="16.1555">A</text>
	<text transform="matrix(1.7096 0 0 1 265.5156 988.5293)" fill="#1453C5" font-family="'Helvetica-Bold'" font-size="18.5775">K</text>
	<text transform="matrix(1 0 0 1.2062 288.5596 1060.5234)" fill="#12864B" font-family="'Helvetica-Bold'" font-size="34.0648">S</text>
	<text transform="matrix(1 0 0 2.1354 289.1602 1029.4492)" fill="#12864B" font-family="'Helvetica-Bold'" font-size="35.0218">T</text>
	<text transform="matrix(1 0 0 3.2339 308.6494 1061.4727)" fill="#2E2E2E" font-family="'Helvetica-Bold'" font-size="36.7905">P</text>
	<text transform="matrix(21.56 0 0 1 332.3418 1061.4746)" fill="#12864B" font-family="'Helvetica-Bold'" font-size="1.4997">Y</text>
	<text transform="matrix(14.614 0 0 1 332.9453 1059.6934)" fill="#2E2E2E" font-family="'Helvetica-Bold'" font-size="1.4997">W</text>
	<text transform="matrix(22.4998 0 0 1 330.458 1057.9141)" fill="#1453C5" font-family="'Helvetica-Bold'" font-size="1.4997">R</text>
	<text transform="matrix(20.8275 0 0 1 332.04 1056.0664)" fill="#750F91" font-family="'Helvetica-Bold'" font-size="1.3567">Q</text>
	<text transform="matrix(24.1161 0 0 1 330.4062 1054.3574)" fill="#2E2E2E" font-family="'Helvetica-Bold'" font-size="1.4997">P</text>
	<text transform="matrix(27.7376 0 0 1 327.0547 1052.5801)" fill="#2E2E2E" font-family="'Helvetica-Bold'" font-size="1.9678">I</text>
	<text transform="matrix(8.8668 0 0 1 332.7305 1050.8008)" fill="#12864B" font-family="'Helvetica-Bold'" font-size="4.0259">T</text>
	<text transform="matrix(8.7334 0 0 1 330.7959 1047.2402)" fill="#750F91" font-family="'Helvetica-Bold'" font-size="4.0259">N</text>
	<text transform="matrix(5.1277 0 0 1 332.4512 1043.6816)" fill="#2E2E2E" font-family="'Helvetica-Bold'" font-size="6.4541">V</text>
	<text transform="matrix(5.8608 0 0 1 330.2812 1038.3457)" fill="#C5144B" font-family="'Helvetica-Bold'" font-size="6.4541">E</text>
	<text transform="matrix(2.6009 0 0 1 332.1436 1032.7051)" fill="#12864B" font-family="'Helvetica-Bold'" font-size="13.0813">S</text>
	<text transform="matrix(2.9903 0 0 1 329.9434 1022.334)" fill="#2E2E2E" font-family="'Helvetica-Bold'" font-size="13.7267">L</text>
	<text transform="matrix(1 0 0 1.5831 330.8828 1011.6582)" fill="#1453C5" font-family="'Helvetica-Bold'" font-size="31.8847">K</text>
	<text transform="matrix(1 0 0 3.7323 352.6748 1061.4727)" fill="#1453C5" font-family="'Helvetica-Bold'" font-size="31.8847">K</text>
	<text transform="matrix(20.8275 0 0 1 375.6299 1061.4014)" fill="#750F91" font-family="'Helvetica-Bold'" font-size="1.3567">Q</text>
	<text transform="matrix(22.6557 0 0 1 374.4482 1059.6924)" fill="#750F91" font-family="'Helvetica-Bold'" font-size="1.4997">N</text>
	<text transform="matrix(18.9232 0 0 1 374.8994 1057.916)" fill="#2E2E2E" font-family="'Helvetica-Bold'" font-size="1.4997">M</text>
	<text transform="matrix(21.1558 0 0 1 375.543 1056.1016)" fill="#12864B" font-family="'Helvetica-Bold'" font-size="1.4635">G</text>
	<text transform="matrix(26.2294 0 0 1 373.7881 1054.3574)" fill="#2E2E2E" font-family="'Helvetica-Bold'" font-size="1.5628">F</text>
	<text transform="matrix(10.3768 0 0 1 373.4102 1052.5742)" fill="#2E2E2E" font-family="'Helvetica-Bold'" font-size="4.0259">L</text>
	<text transform="matrix(8.5714 0 0 1 374.1123 1049.0195)" fill="#C5144B" font-family="'Helvetica-Bold'" font-size="4.0259">D</text>
	<text transform="matrix(5.1277 0 0 1 376.0381 1045.4609)" fill="#2E2E2E" font-family="'Helvetica-Bold'" font-size="6.4541">V</text>
	<text transform="matrix(5.4693 0 0 1 376.3369 1040.123)" fill="#12864B" font-family="'Helvetica-Bold'" font-size="6.4541">T</text>
	<text transform="matrix(5.7342 0 0 1 374.0459 1034.7871)" fill="#2E2E2E" font-family="'Helvetica-Bold'" font-size="6.4541">P</text>
	<text transform="matrix(3.8805 0 0 1 374.0811 1029.4492)" fill="#1453C5" font-family="'Helvetica-Bold'" font-size="8.876">R</text>
	<text transform="matrix(1.8818 0 0 1 375.7314 1022.5107)" fill="#12864B" font-family="'Helvetica-Bold'" font-size="18.0804">S</text>
	<text transform="matrix(1.5634 0 0 1 376.0376 1007.5859)" fill="#2E2E2E" font-family="'Helvetica-Bold'" font-size="19.3551">A</text>
	<text transform="matrix(1.3546 0 0 1 374.4756 992.0879)" fill="#1453C5" font-family="'Helvetica-Bold'" font-size="23.4287">K</text>
	<text transform="matrix(21.56 0 0 1 397.7227 1061.4746)" fill="#12864B" font-family="'Helvetica-Bold'" font-size="1.4997">Y</text>
	<text transform="matrix(24.1161 0 0 1 395.792 1059.6953)" fill="#2E2E2E" font-family="'Helvetica-Bold'" font-size="1.4997">P</text>
	<text transform="matrix(27.7376 0 0 1 392.4414 1057.916)" fill="#2E2E2E" font-family="'Helvetica-Bold'" font-size="1.9678">I</text>
	<text transform="matrix(26.2294 0 0 1 395.583 1056.1328)" fill="#2E2E2E" font-family="'Helvetica-Bold'" font-size="1.5628">F</text>
	<text transform="matrix(8.3131 0 0 1 397.7988 1054.3564)" fill="#2E2E2E" font-family="'Helvetica-Bold'" font-size="4.0259">V</text>
	<text transform="matrix(8.7334 0 0 1 396.1787 1050.7988)" fill="#750F91" font-family="'Helvetica-Bold'" font-size="4.0259">N</text>
	<text transform="matrix(7.2946 0 0 1 396.6377 1047.2402)" fill="#2E2E2E" font-family="'Helvetica-Bold'" font-size="4.0259">M</text>
	<text transform="matrix(10.3768 0 0 1 395.2051 1043.6777)" fill="#2E2E2E" font-family="'Helvetica-Bold'" font-size="4.0259">L</text>
	<text transform="matrix(8.79 0 0 1 396.1572 1040.1221)" fill="#1453C5" font-family="'Helvetica-Bold'" font-size="4.0259">H</text>
	<text transform="matrix(4.7186 0 0 1 397.8379 1036.5664)" fill="#2E2E2E" font-family="'Helvetica-Bold'" font-size="6.4541">A</text>
	<text transform="matrix(3.9671 0 0 1 398.1309 1031.2285)" fill="#12864B" font-family="'Helvetica-Bold'" font-size="8.876">T</text>
	<text transform="matrix(3.1644 0 0 1 397.541 1023.8652)" fill="#12864B" font-family="'Helvetica-Bold'" font-size="10.673">S</text>
	<text transform="matrix(3.0363 0 0 1 395.875 1015.2158)" fill="#1453C5" font-family="'Helvetica-Bold'" font-size="11.3048">R</text>
	<text transform="matrix(2.8442 0 0 1 397.3438 1006.0742)" fill="#12864B" font-family="'Helvetica-Bold'" font-size="10.673">G</text>
	<text transform="matrix(2.738 0 0 1 395.6426 997.4248)" fill="#C5144B" font-family="'Helvetica-Bold'" font-size="13.7267">E</text>
	<text transform="matrix(1.9688 0 0 1 396.2549 986.75)" fill="#1453C5" font-family="'Helvetica-Bold'" font-size="16.1555">K</text>
</g>
<g>
	<g>
		<path fill="#F5F5F5" d="M522,395.3c0,2.8-2.2,5-5,5H91.7c-2.8,0-5-2.2-5-5v-29.4c0-2.8,2.2-5,5-5H517c2.8,0,5,2.2,5,5V395.3z"/>
	</g>
	<text transform="matrix(1 0 0 1 94.6939 386.7866)" fill="#333333" font-family="'Helvetica-Bold'" font-size="22"> (1) Identify sites on interacting partners</text>
</g>
<g>
	<g>
		<path fill="#F5F5F5" d="M419.7,656.2c0,2.8-2.2,5-5,5H194c-2.8,0-5-2.2-5-5v-29.4c0-2.8,2.2-5,5-5h220.7c2.8,0,5,2.2,5,5V656.2z"
			/>
	</g>
	<text transform="matrix(1 0 0 1 193.1196 648.5513)" fill="#333333" font-family="'Helvetica-Bold'" font-size="22"> (2) Motif enrichment </text>
</g>
<g>
	<g>
		<path fill="#F5F5F5" d="M491.6,897.7c0,2.8-2.2,5-5,5H122.7c-2.8,0-5-2.2-5-5v-29.4c0-2.8,2.2-5,5-5h363.8c2.8,0,5,2.2,5,5V897.7z
			"/>
	</g>
	<text transform="matrix(1 0 0 1 117.1094 890.0327)" fill="#333333" font-family="'Helvetica-Bold'" font-size="22"> (3) Combine sites matching motifs </text>
</g>
</svg>
